<svg xmlns="http://www.w3.org/2000/svg" xmlns:xlink="http://www.w3.org/1999/xlink" version="1.1" x="0px" y="0px" viewBox="0 0 1000 1250" style="enable-background:new 0 0 1000 1000;" xml:space="preserve"><g><path d="M396.7602844,846.4204712c-15.3614502,23.7399902-48.6625977,16.2114868-66.5448608-0.0453491   c10.2009277,24.9175415,42.1585999,30.8781128,76.3096924,15.6325684   c-9.0656738,13.9297485-34.5192871,16.6459351-49.2855225,14.4644775   c-20.0809937-2.9666748-36.4347839-15.6242065-47.2019043-32.4197998   c-14.2748718,11.336853-28.8227539,20.9884033-47.9904175,18.3113403   c9.4676208-1.9932251,19.0698242-5.1484985,26.1761475-12.0101318c8.6602478-8.3621216,9.5618286-18.5860596,9.2243042-30.0293579   c-4.4168091,12.4834595-11.2104492,24.8193359-22.7185059,32.0371704   c-12.6160889,7.9127808-30.911911,10.359375-42.2961731-0.9160767c23.3740082,6.479187,40.8443298-4.9714966,44.8449707-28.3890381   c-12.6940918,19.3147583-40.7279816,33.9581299-59.7025452,12.887146   c10.7092896,4.0751343,23.2593689,5.2636719,33.3192596-1.2670898c8.2918243-5.3829956,11.2509308-14.961792,13.3220062-24.128418   c-13.752655,17.6803589-29.0659027,23.2762451-48.2042389,11.1831055   c9.3632507,0.1469727,19.6970825-0.3222046,26.6080017-7.5217896c8.7867737-9.1537476,8.093811-22.1170654,2.7073975-32.7692871   c-3.4763947,18.6014404-9.1562195,34.2142334-31.2987518,33.8329468   c19.4546661-5.4003296,24.8367615-27.5278931,12.2108002-42.9075928c0.7028198,9.1934204,1.002533,19.2163696-3.8943024,27.4161987   c-5.2525177,8.7953491-15.6876068,14.9523315-25.6369629,10.0585327   c17.4407501-2.9898071,24.3854218-18.3244629,15.4706116-34.9840088   c-0.8646698,5.9979248-1.9865112,12.8321533-6.7119751,17.1242065c-5.0054321,4.5463257-14.2822876,6.5338745-20.3862915,3.4577026   c17.8042145-3.19104,20.5497742-18.9957275,19.2541046-34.897522c-0.7518311-9.2267456-3.3340149-18.2312622-6.8358002-26.7701416   c-1.9573669-4.7727661-4.2104187-9.4179077-6.6041107-13.9853516c-1.521286-2.902832-5.2120361-6.84198-4.1028748-10.0269775   c23.8951569,28.0045776,49.8224945,52.5231323,87.4107513,60.5751953   c-12.1777344-33.4237671-3.4817505-63.4959717,15.2163696-92.0692139   c-14.5040283-9.8517456-20.5357056-21.8886719-20.6605835-38.9619751   c-0.0603333-8.2459106-1.9602051-16.3062134-4.4809875-24.1188965c-2.4095459-7.4680176-6.6409302-15.1421509-6.0299377-23.2004395   c18.3892517,1.750061,30.7711182,11.5170898,43.5501099,23.9772949   c8.6662292,8.4500732,27.6221313,26.3546753,37.2437134,9.6693726   c-8.4859314-3.1315308-15.9819641-9.1317749-14.2553101-19.2456665   c1.8280945-10.7079468,12.1756897-15.1008911,19.8674622-20.9575195   c0.0299072-9.0353394,0.5210266-18.3192749-1.4830322-29.1849976   c-4.6612854,9.2814941-11.9871216,16.4143677-19.2860107,23.6166992   c-7.0391235,6.9458618-13.6520691,14.5638428-10.7813416,25.1738892   c-9.6058044-13.8062744,1.132843-30.8138428,8.0848389-43.1079102   c-20.7331238,3.8214111-29.2485352,15.8239746-23.890625,32.8328247   c-9.6069641-9.3022461-7.3248291-24.3566895,7.2478333-47.8117676   c-11.5786743,2.9579468-18.9378662,13.1138916-20.6250916,29.8179321   c-5.5841675-10.9000244-4.6687622-21.116333,0.5122681-31.9180298c5.2325745-10.9091187,9.9312439-20.7512207,5.3388672-32.9334106   c-0.5193176,13.8861694-9.3709717,25.8314209-12.7513428,39.0443726   c-3.0027771,11.7371826-0.660614,23.0825195,2.4186096,34.5661011   c-10.6801147-7.3817749-15.5927429-21.2335815-14.43396-33.8598022   c1.2881165-14.0350952,14.3699036-21.8730469,14.9846497-35.9465942   c0.7266235-16.6348572-11.9017334-29.181427-23.5429688-39.3341064   c-13.333313-11.6283569-27.7115479-22.168396-38.0886078-36.7357178   c-0.5742493,9.4689941,3.3284607,15.7149048,7.9059906,21.7635193   c-12.5256195-8.6175537-12.5039673-19.627594-15.5402832-33.1479797   c-3.1177826-13.8830566-10.0775452-26.5089722-19.6383972-36.9957275c0.8560028-3.0475464,7.5616455-5.8897705,9.72966-8.2994995   c3.1555176-3.5072937,5.5202179-7.7860718,6.678772-12.3674622c2.3625488-9.3423157-0.5558624-19.581604-8.2259369-25.6230774   c-6.8620605-5.4049988-16.6110229-6.5179443-24.4024506-2.4360352   c-9.6694031,5.0657959-9.8816071,13.5713806-12.4332733,22.8817444   c-5.8246002-28.1140747,19.9443207-52.8733521,41.4152069-66.8093567   c25.062973-16.2674866,57.0146332-25.6602173,86.5447845-17.8579102   c23.4415283,6.1935425,43.6774902,21.8377075,53.8222351,44.0643311   c11.4311218,25.0451355,11.5872498,59.4312439-0.6027527,84.1503906   c-6.1725769,12.5168457-18.4864807,24.1173706-33.488678,22.2011719   c-14.7163391-1.8796997-25.6040649-18.149231-13.9877625-30.2372131   c-17.1617126,5.7288208-4.3182678,28.2106934,7.032074,32.6123352c14.9862671,5.811676,30.9324341-2.4042969,39.9171143-14.392395   c11.8116455-15.7600098,14.5563049-35.8294678,14.9709778-54.9916992   c0.4431152-20.4761047-2.4441833-40.9886475-8.9517517-60.4246521   c-10.3317566-30.857605-33.4415588-48.7698364-66.4966736-47.0345764   c-35.9391937,1.8866577-68.7307587,18.5942993-94.7579041,42.9161682   c-14.2545776,13.3206482-26.4109039,30.2321777-30.3097992,49.6872864   c-3.7538757,18.7315063,1.7978973,38.328949,20.799408,45.5068054   c-24.0721893,2.129425-30.1738129-27.8082886-27.4541321-45.9046631   c3.6283722-24.1426392,19.3819275-43.6834106,36.4710693-60.1326599   c16.2330322-15.6252136,35.0267487-28.5202332,55.8020172-37.3225403   c21.9139404-9.2848053,47.4324951-16.3126373,71.0267944-9.7966156   c-7.0296021-8.4561462-15.8673096-17.2198029-12.6272583-29.3018341   c2.4259949-9.0463409,10.9793091-12.1114502,19.5461121-12.870575   c-2.6996765-25.984024,13.6322937-46.8544769,18.7865295-72.0338211c4.5424194,5.1218796,8.223175,9.2722244,12.4089355,13.991951   c3.5028381-10.0281525,10.0401306-17.3389511,16.9627075-23.9112549c1.9227295-0.65448,1.4646912,1.3157501,2.8049622,1.5452576   c4.3074341-10.8305511,10.8939819-19.7706146,22.3110962-24.2802277   c-3.710083,7.0695038-6.2117004,15.0070801-1.1615295,22.0999756c3.9162292,5.5002594,10.4995728,7.2875366,16.9725342,6.3604279   c-4.2398987-5.1875229-8.908844-10.4769516-8.1093445-17.63517c0.8178711-7.3226166,6.4214478-13.0036697,12.0274353-17.2131882   c-1.8448486,7.1622162-6.1774292,14.1363983-3.8648071,21.715477c1.8792725,6.1588745,7.407135,11.1471252,13.5315552,12.8956909   c-8.6425476-14.5341568-9.1237793-32.0651321-2.8856201-47.6154785   c5.2387085-13.0589561,17.2383728-20.2201271,29.7866821-25.2060165   c-0.9245605,8.3729591-11.5263977,13.8420486-9.758667,22.8518372   c1.5970154,8.1400757,13.0784607,12.2910767,19.4049683,15.8805542c-0.8537903-5.0906296-1.5816345-9.4300308-2.3098145-13.7715912   c1.0462036-1.7867813,3.0851746,0.0394363,4.6328735-1.56353c2.2307739-13.5275841,4.7096863-24.5623398,14.4252014-34.8012047   c9.2342834-9.7317276,18.5058594-18.7018299,22.8419189-31.8072433   c4.5320129,13.2477264,13.7619934,22.369379,23.4079895,32.0028419   c9.5979614,9.5856285,14.0158691,21.6236038,12.3798828,35.1795578c2.1156006,1.863205,3.3638916-1.4061966,5.2241821-0.1828308   c0.741333,4.0663223-1.5820312,7.9620209-1.402832,12.7760544c7.2359009-2.9586411,15.1376343-6.5779343,16.8446045-15.0783997   c1.7167358-8.5488319-5.692688-13.3818932-8.1135864-20.757637c30.5273438,6.9195938,42.5856934,44.4415283,28.5222168,71.7659607   c13.0395508-2.1668015,15.7317505-12.586525,8.6000977-33.2860107c6.1843262,1.9475174,12.1908569,8.5289536,13.201355,15.0275879   c1.2034302,7.7395782-5.067627,12.8129578-8.9343872,18.6453247c16.6126099,3.927002,23.59198-14.8655548,16.0106201-27.2291794   c8.9880371,2.4466934,16.480957,10.2963486,21.7341919,22.4093094c5.9488525-0.6351776,14.7238159,9.7154312,20.9468994,23.0912628   c3.8294678-4.4822235,7.4893188-8.7659454,12.0946655-14.1563721   c4.4298706,25.3071442,21.2235107,46.0851593,17.9621582,72.0379333c8.0427856,1.7584686,17.84729,4.5689392,20.2070312,13.5520935   c3.0618286,11.6557465-5.7868652,20.7932129-13.2509155,28.3264771   c45.3297119-8.7240601,94.7971802,17.0288849,126.923584,47.5913544   c15.8146362,15.0446777,31.192749,34.4798279,35.9681396,56.2211609c2.3930054,10.89505,2.2178345,23.4284973-2.4996948,33.7164917   c-3.8666382,8.4323425-13.0454102,17.6531372-23.1120605,16.3138428   c34.8729248-16.6921082,18.6907349-60.8131104-0.055603-83.6939392   c-22.203186-27.1001282-57.616272-47.7878723-92.2547607-53.1222839   c-33.2595825-5.1221008-63.633667,4.5152588-76.9302979,37.2535706   c-14.0448608,34.5806274-18.6861572,78.9085693-3.7040405,114.1162109   c6.3603516,14.9466553,20.9437256,27.2092896,37.9873047,25.8704224   c8.4104004-0.660675,16.3587646-4.9665222,20.7284546-12.3085938c4.21521-7.0825806,5.1891479-17.7136841-3.8865967-21.4120789   c9.7929688,9.9982605,0.9451294,23.8085632-10.1931763,28.078186c-11.7615967,4.508606-23.9668579-0.5678711-32.0010376-9.5392761   c-10.1507568-11.3348694-13.6315918-28.1032104-15.0908203-42.8047485   c-1.6677246-16.8027954,0.5595703-33.9666443,6.5965576-49.7484741   c20.6941528-54.0989075,86.6988525-59.4214172,131.975769-34.6859131   c25.3849487,13.8683472,54.2984009,38.2540894,51.4987183,69.930542   c-1.8878784-9.0667419-5.7369385-17.4349976-14.814209-21.164093c-8.6834717-3.5673218-18.526001-0.9405823-24.8065796,5.8687134   c-13.9299927,15.1027222-3.4315186,33.5996399,10.887146,43.2688599   c-8.5932617,11.4452209-16.6099243,22.0575562-19.2907715,36.4834595   c-2.5161133,13.539032-3.6112061,25.1749878-15.7177124,33.9396362c4.4177246-6.1864624,8.3875122-12.5037842,7.6707764-21.864502   c-5.6321411,6.6685791-10.1022339,13.3087463-16.8999023,18.9450073   c-6.3742065,5.2850952-12.7148438,10.6109009-19.0054932,15.9952393   c-11.5728149,9.9052429-25.6245117,21.671875-26.2807007,38.2014465   c-0.5964966,15.0228271,12.7387085,23.4708862,15.4909058,37.4483643   c2.6607056,13.5134277-3.4743042,26.7166748-13.6426392,35.5153198c3.5852051-13.0448608,5.0302124-24.4688721,0.861145-37.6773682   c-3.8590088-12.2262573-11.850647-23.3668213-11.9993286-36.5782776   c-4.4898682,13.2598572,0.3106689,22.3746033,5.972168,34.0640564c4.4855957,9.2615356,6.600647,22.1442871,0.4134521,31.1516724   c-0.75177-14.7627563-7.5621338-24.3891602-21.8908081-30.2286987   c10.7183228,14.4238281,21.1917725,32.2774658,8.914856,49.3446045   c5.0856934-20.4227905-7.3297119-28.0779419-24.5322266-34.3730469c7.9946899,14.8045044,18.246582,28.43396,8.1987305,45.2164917   c6.2536011-21.1258545-21.5800171-33.0432739-29.9604492-49.1088867   c-1.5122681,9.5377197-1.2732544,18.9588013-0.7901611,28.7818604   c7.5085449,4.6815796,17.9782715,10.1586304,19.3696289,19.9681396   c1.3009644,9.1721802-6.8804321,15.7595215-14.1515503,19.4987183   c9.9470215,16.8249512,29.4471436-1.3118286,37.9500122-10.3544312   c5.7449341-6.1096191,11.6970215-11.7421265,19.0805664-15.8564453c5.3382568-2.9745483,17.6772461-9.355835,23.8723755-6.5123901   c-0.246521,9.0068359-4.3300781,17.2518921-6.8754272,25.7315063c-2.565918,8.5482788-2.2469482,16.1143799-2.512146,24.8366089   c-0.4642944,15.2719116-10.0562134,25.4418335-20.9359741,34.8996582   c20.5252686,32.3460693,24.6645508,66.1531372,13.0894165,92.0942383   c38.3754272-7.9285278,64.8331299-32.6049194,89.3442383-60.4693604   c-8.6983032,17.4534912-18.4768066,34.4754028-18.8862305,54.5443115   c-0.3215332,15.7615356,3.6850586,28.4742432,20.6308594,30.704834   c-6.7714233,2.5988159-14.6166992,1.8799438-20.5421143-2.4814453c-5.491333-4.0418701-6.8884277-10.6152344-8.2855835-16.9346924   c-7.2528687,17.0543823-1.3617554,29.5941162,15.0579834,34.2689209   c-9.8756104,4.7304688-20.3084106-2.0466919-25.0916748-10.7526245c-4.8023682-8.7407227-3.750061-19.1923828-2.2077637-28.6535034   c-7.3729858,7.7155762-10.1227417,18.8955688-6.7887573,29.1487427c2.8081055,8.6358032,10.434021,13.0054932,18.71698,15.4887695   c-17.3225098,2.0189819-26.7830811-8.0176392-32.4165039-32.6929321   c-6.402771,8.1005859-5.3121948,20.6869507,0.3984375,28.8391724c6.5449829,9.3433228,17.5636597,9.3894653,27.8184204,10.6029053   c-14.5535278,10.6965332-26.09552,8.1898804-46.9177246-9.7497559   c1.4450684,20.8948975,15.7138672,28.7485962,44.7714233,24.6427612   c-12.6762085,16.2167969-38.7380981,10.6620483-58.1656494-12.3973389   c1.1846313,17.4450073,15.3374023,35.3864136,45.418457,26.2211304   c-15.5971069,16.4576416-52.3577881,9.8395996-65.12146-28.9329224c-2.371582,9.3718872-1.1586304,19.0046387,5.5245972,26.3065186   c8.2755737,9.041687,19.690918,10.6503906,30.6973267,14.3959961   c-18.8789062,2.6109619-33.1353149-5.6959229-47.1939087-16.5836792   c-12.8081055,20.3408813-27.9375,38.4188843-51.842041,45.5437012   c-12.6595459,3.7731323-25.2706299,3.7244263-37.6837158-0.9758301   c-12.5391846-4.7479248-23.5698242-10.480835-37.0160522-12.6984863   c9.2161255,15.9671631,24.052002,26.072876,42.3968506,28.2399292   c21.4694214,2.5361328,41.2840576-5.6868286,59.0982056-16.9586182   c-24.4194946,27.1932373-87.9669189,39.6671143-116.1116333-14.8869019   c-2.6721191,2.1270752-5.2689819,4.1942139-8.2003174,6.5275879c6.9177856,41.8209229,63.9248657,46.0638428,95.1849365,32.909729   c-20.9543457,22.0005493-77.7962646,23.4637451-105.1136475,2.9544678   c1.2269897-9.0864868,1.1975708-18.421936,0.4879761-28.9888916   c-27.0614014,18.0505371-56.4074097,32.569519-88.6315613,38.4723511   c-15.9174194,2.9156494-32.5392456,4.0203247-48.6575928,2.2712402   c-15.7198792-1.7058105-35.0182495-6.3917847-46.7822876-17.6849976   c63.9624023,25.8778076,148.5767212-0.0157471,186.1211243-58.4095459   c-8.3459473,0.2084351-17.0127563,0.9666138-24.6604919,4.5856934   c-7.1290894,3.3736572-12.5344238,12.7572632-21.2721863,10.7456665c5.3197937-3.0770874,6.7548523-8.0066528,8.9038086-13.4500732   c-4.6812134,0.4202881-8.4712524,7.2855835-12.1643677,9.9649048c-5.0269775,3.6469727-10.6516724,5.4881592-16.4475403,7.5244141   c-12.6959839,4.4605103-24.3174133,10.9589844-36.3403625,16.8917236   c-24.5907288,12.1342773-54.3430481,10.3842163-74.8667908-8.8746338   c2.0812073-1.7061157,9.3983459,3.3048096,11.8463745,4.1924438c4.9082947,1.7797241,10.0018921,3.0786133,15.1817017,3.7550659   c10.8670044,1.4193115,22.0046082,0.0075684,31.8677673-4.8997803   c10.9717712-5.4588623,17.1966858-15.7437744,27.2970276-22.1724854   c10.8556213-6.9093628,22.9558411-6.8901367,32.6334229-16.2597656c-11.519165-6.517334-22.9769897,3.9055786-35.1949768,1.0656738   c12.7367249-3.6536865,17.6854858-18.640686,31.3208008-19.9796143   c-11.0866699-4.5280151-19.531311-0.6384277-28.7075806,5.6853638   c-5.3803101,3.7078247-17.9953918,10.4041748-23.9403687,4.8578491   c15.2948914,0.1264648,18.3607178-19.3821411,31.6517029-24.473938   c-12.1552734-4.2669678-19.6012268,5.9862061-27.7110596,12.9788208   c-8.3616333,7.2097778-20.0601196,9.5614014-29.7923889,3.4241943   c20.0024109,3.2212524,21.2035522-20.2023315,34.919281-28.8947754   c-19.5710449-4.1201782-30.3696899,10.59021-45.5544739,19.0213623c-13.066864,7.255188-31.8713074,5.0524292-40.4945984-8.0708618   c8.7780457,4.4763794,18.1653748,8.2147217,27.8832397,4.1217041c9.705719-4.0879517,14.6444397-15.1800537,19.1599121-23.9996338   c-13.2160339-8.4692993-28.4625549-13.8380127-44.3103027-12.7940674   c-17.1336365,1.12854-32.542572,9.7136841-49.8940125,10.6293945c15.9890747,6.9940186,28.53125,5.3508301,44.8230896,1.0452271   c12.8287354-3.3903809,26.4243164-2.4255371,29.9779663,12.4880981c-11.186615-8.6657715-26.04953-7.2969971-35.4798584,3.5153809   c-9.2488708,10.6043701-6.9921875,24.0102539,2.1492615,33.730835c7.5346069,8.0118408,18.2866211,13.7058716,29.119751,15.524231   c5.5114441,0.9250488,11.2549744,0.8308105,16.6150208-0.8617554   C388.2806702,851.756897,392.1005859,847.1303101,396.7602844,846.4204712z M531.6619873,78.7866745   c1.3149414,0.440834,1.7021484-0.4231186,2.0541992-1.5612183c-1.3344727-1.4121399-3.84552-0.2478561-5.1633301-2.4064178   c-0.6047363-2.5077438-1.2894897-5.3474579-1.9742432-8.1871414c-0.7061768-6.157589-3.2590332-11.2879562-8.5247803-15.5976181   c-2.010437,8.6309967-2.7582397,16.8572769-3.1009521,25.3282928c5.4995728-1.575737,8.0869141-6.3312073,11.6936646-9.8103638   c1.7479248,8.4864426-4.9805908,14.3611984-7.2144165,21.6684799c4.052063-3.5993958,7.3500366-7.6174622,12.4090576-9.4399567   c-1.7233887,4.5688782-8.7383423,5.3232117-8.8473511,11.9384003c2.4663696-1.7348175,3.3764648-4.5662003,6.8842163-4.0035553   c-0.5081177,3.4503021-1.0181885,6.9139404-1.4615479,9.9250641c-1.2402954,1.8464203-2.102478-0.7681885-3.1316528,0.371933   c0.5050659,1.7068558,0.9117432,3.4359665,2.9966431,4.0312881c5.763855-5.3691177,7.8996582-12.1583405,8.2105103-20.0259781   C534.6216431,80.6937027,531.8598022,82.1323547,531.6619873,78.7866745z M383.1454163,126.9733353   c3.4380798,2.8772049,6.9162903,5.6545029,12.9777832,4.9174576c-8.3295593-5.8964539-9.0628967-14.5190353-10.5791016-24.4776688   c-2.7653503,7.0160446-4.8968201,12.1550903-2.6036682,17.8814468c-2.9067078,0.4161148-1.9124146,2.4664764-1.6809692,4.1269073   c1.306427,9.3722382,8.5740051,13.0527954,16.0136719,17.1949921c1.3245544-3.1027985,2.4555054-5.7520599,3.5765381-8.3781433   C394.2837219,135.1664581,386.6615295,134.2889099,383.1454163,126.9733353z M614.529541,128.4283905   c-3.1146851,6.4392548-10.1153564,6.8862457-16.468689,10.2688751c4.2792358,1.3917389,3.0280762,5.6690521,5.6813965,7.8899078   c8.0096436-4.58638,15.6467285-9.1926575,14.8662109-20.3047638c-1.6102905,0.8825378-2.9503784,1.6170425-4.2905273,2.3515625   c4.6478271-6.411644,4.6384888-12.6018143-0.776001-20.5706253c-0.5096436,9.605957-3.128479,17.6134644-9.0197754,25.1853867   C609.0112305,132.2799225,611.5649414,129.9412384,614.529541,128.4283905z M502.0749512,32.1842155   c0.9108276,4.9859085-0.5242004,9.9433212-0.3101807,15.0273552c4.432251,3.7989655,7.1106567,9.00177,10.704895,14.9570427   c1.3210449-11.531456,1.4468384-23.5926819-10.5934753-29.8109474c0.528595-1.6310368,0.629425-3.0867729-1.6058044-3.7561169   c-6.816864,9.9682178-17.4169922,14.2743397-10.5003357,27.2829647c3.4778748-3.4363556,7.3942871-6.9207458,9.5137024-11.4249229   C501.1707764,40.4494514,499.692688,35.486496,502.0749512,32.1842155z M662.3336792,172.5814514   c0.6005249-9.1331482-7.9759521-15.0395355-7.4658203-24.9647369c-5.2321777,5.2699432-6.8289185,11.8864594-13.1256714,14.170578   c-0.145813,3.8692017,1.1538086,7.1221619,2.9611206,10.4561768c2.9515991-3.1577606,3.8649902-7.999115,8.8019409-9.9985046   c0.8132935,6.337265,0.2102051,12.5229645,2.8829346,18.48909c2.2280273-3.0263824,4.190918-5.6924896,6.1538696-8.3585663   c-2.2978516,6.085556-2.9820557,12.1985474-1.8375244,18.7521057c0.9542236,5.464325,0.6489258,11.1281891-4.6530762,15.2179413   c2.7138672,2.1934509,5.0089111,4.0484314,7.2175903,5.8335876   C671.7283936,205.86586,671.0009155,183.2781067,662.3336792,172.5814514z M646.6063843,249.7096558   c-0.097168-5.8671265-0.6439819-10.7337189-6.2766113-13.708725c-5.2156982-2.7548065-9.9100952-0.5506439-12.4026489,4.7339783   c-5.8208008,12.3410797,6.9790039,17.5254974,16.0349731,11.4962311   c-0.3214722,4.7917175-1.7398682,9.9920654,4.5078125,12.5181885c5.1726685-2.6727295,8.1226196-7.1117859,11.0183105-11.9094391   c-2.7111816-1.8408966-5.2954712-3.5955963-7.5594482-5.132782   C649.5077515,247.5586395,648.1347046,248.8222351,646.6063843,249.7096558z M623.4038696,165.2527313   c14.1454468-9.8776855,16.5905762-19.3098297,7.8864746-32.7260895   c-1.8422241,12.5655975-12.6549683,18.6524658-20.1235962,28.8910065   c7.8666992-2.9667358,10.6481323-1.7332611,12.4192505,4.0607147c-1.7855225-0.4535065-3.0737305-3.4630585-5.1106567-2.8008881   c-1.9281616,0.6268005-0.3833618,2.3850708-0.7166138,2.5515442c-3.1160278,1.5566101-2.0324097-2.1582947-4.9412842-1.6462097   c-4.9248047,4.966568,5.8585205,6.5783386,7.6766968,8.1643677c-4.3771362,2.7852631-6.8132935-0.5519104-9.522522-2.214859   c-1.0018311,1.9614258-1.9487915,3.4978943-1.2982178,5.5423431c3.0233765,3.0942993,10.0731201,6.513031,13.2565918,1.5475769   C624.6416626,173.9522552,623.5908813,168.3601074,623.4038696,165.2527313z M551.4569702,104.1361237   c10.8632202-2.8142548,20.8772583-4.3702469,20.0759277-18.0420914c-1.7602539,1.1420975-1.708252,3.9046326-4.0369873,4.210762   c1.0123291-13.5989227,0.1689453-17.2439346-5.2025146-21.7038193   c0.6983643,10.2422333-0.1721802,19.6109467-12.2677612,23.1909866c5.4176636,4.1714249,1.6965332,8.4314575,1.5408936,12.4459229   c-1.4037476,0.0862427-1.5272217,2.513855-3.3294067,1.8673172c-1.7178345-2.8095627,1.5143433-5.307373,0.5372314-8.0147705   c-6.5991211-1.998642-22.8983765,3.9230347-14.8416748,12.5664749c2.1598511-2.3412247,2.6901855-6.2684708,6.80896-6.9465103   c2.276001,5.2629166-3.8739624,10.6194153,0.5400391,16.4064331   C543.69104,113.4947586,547.9276123,109.053833,551.4569702,104.1361237z M377.5227356,168.6922607   c-0.7631531-0.5379028-1.2944336-1.5372467-2.6656494-1.1967621c-0.6412048,5.5473938-0.2190552,12.2294617,6.8946533,12.4002838   c6.5968018,0.158432,8.7107544-5.8514709,8.5164795-11.4265137c-0.4747009-13.6208038-9.1076355-15.5889282-20.6999817-16.5376892   c0.0098877-0.1756592,0.0198059-0.3513184,0.0297241-0.5269775c2.3943176-0.1560822,4.7886047-0.3121643,8.3862915-0.5466766   c-6.4801636-4.70578-8.0763245-11.0749054-11.1563721-17.6246033c-1.8294067,5.9567413-5.4241028,12.3943481-2.8335571,18.5341339   c1.9389038,4.5953217,6.7677002,10.4485016,12.0048523,11.3436432   C375.6915283,165.1941071,376.826416,166.8833313,377.5227356,168.6922607z M485.2719116,102.7356186   c-4.8028259,6.2342072-9.6056519,12.4684219-14.3869934,18.6747971c1.4310913,5.4001312,3.8548584,10.5831757-0.3484192,16.6665344   c-1.0154114-4.696991-1.0415039-8.8138275-2.9613342-12.8955002c-5.6118164,7.4745255-11.9051514,17.7905502-9.783783,27.6342087   c1.8103027,8.400116,9.9077148,9.7585144,17.3033752,8.2766113c-5.0717468-4.7232513-5.8586731-10.6827087-6.019043-16.7448425   c1.6537476-0.942749,1.4590759,1.3219147,2.9274597,0.9105988c2.6435547-8.9707336,4.9963074-14.2947693,11.1022339-21.2304916   c6.2332764-7.080452,3.3829956-13.237709,2.0496521-21.450798c2.6569214,2.8430481,5.2989197,5.6977463,7.0213928,9.8581619   c5.2897034-8.4024658,6.7073059-17.4426346,8.850769-27.4507828c4.0636597,10.1916733,3.8696899,20.4539795,10.4262695,28.8814011   c1.0636597-4.7846985,4.4721069-8.0971222,4.6975098-12.8470993c-7.3594666-8.891716-10.0137329-20.0765152-14.2200623-30.7581863   C497.3674927,82.0758209,491.7429504,91.9128418,485.2719116,102.7356186z M417.646698,586.909668   c3.0959778-18.5647583,2.2481689-36.0056152,8.1920166-53.4468384   c-2.1150818,47.8566284-0.5733948,96.5193481,4.3305054,144.1885986   c3.954071,38.4361572,11.9667664,79.9104614,37.4928894,110.3297119   c21.5086365,25.6317749,51.362793,41.3370361,84.6000366,44.8671265   c34.838501,3.7001343,74.5899048-3.5341797,97.8560791-32.0840454   c9.7230225-11.9312134,15.1392822-28.7885132,11.5009766-44.1095581   c-4.3786621-18.4385986-23.50354-21.8032227-39.6716309-18.7642822   c-12.9716797-25.3096313,8.4794312-49.4311523,35.4313965-42.0371094   c30.3186646,8.317627,31.5819092,45.758667,25.916626,70.9389038   c-5.0651855,22.5131226-16.2843628,43.4293823-34.4537354,58.0116577   c-21.8756104,17.5568237-46.9942627,21.031189-73.8537598,24.866394   c-2.7089844,3.9074707-5.1256714,7.3931885-7.8002319,11.2509766c9.4090576,2.4093018,18.1796875,2.0769653,26.7042847,7.6873169   c8.5291748,5.6134644,12.7963867,14.4506836,23.1251831,17.4493408c9.5976562,2.7863159,20.3530884,1.890625,29.3131714-2.5252075   c3.1468506-1.5509033,20.451355-12.4589233,17.6737061-16.786377c-20.4800415,10.7281494-41.4996338,8.0910034-50.163147-6.2445679   c21.2232056,9.9250488,41.4545898,7.0510254,48.8549194-7.2149048   c-13.6159668,5.2311401-27.0143433,9.3415527-39.2214355-2.5772705   c13.6168823,6.4978027,30.6207886-0.3896484,40.9025879-10.2333984c8.6185303-8.2512817,8.8408813-18.8693237,2.9636841-28.8277588   c4.5818481-5.694519,8.2515259-12.0910645,11.7329712-18.1635132c8.7744141-0.7827759,16.9328003-1.5710449,24.3964844-5.4111328   c-6.8198853-0.7820435-13.654541-0.6375122-20.0454102-3.5820312c2.215332-8.3125,4.3590698-16.3562622,6.5013428-24.3944702   c15.4711304,3.4901733,28.1057129-4.8924561,29.4051514-20.9000854   c1.6073608-19.8008423-7.1967773-39.0889893-17.4882202-55.4232788   c-40.9024658,11.2665405-76.8167114-5.3911133-114.0393677-17.8320923   c-2.4003296,10.8553467-4.7873535,21.6505127-7.2076416,32.5958862   c13.6957397-0.8336182,17.6002808-0.1740723,24.0357056,3.9333496   c-28.2469482,8.0544434-42.1234131,22.8568726-34.4329834,36.7304077   c1.6505127-13.6502686,14.9030151-23.6932983,28.2885742-15.5930176   c5.6358643,3.4105225,10.5275879,10.3008423,14.6719971,15.3758545c4.9277344,6.0344849,8.8399048,12.8555908,9.2393188,20.81073   c-8.8053589,18.468811-32.043335,25.3797607-49.0097656,13.4425049   c-20.3435669-14.3134155-23.0509644-44.1950073-22.6362915-66.8743896   c0.5246582-28.6952515,8.4920654-56.3842163,14.4962769-84.2453003c6.3441162-29.4384155,9.4334106-58.149353,8.4720459-88.2573242   c7.3892822,16.3226929,5.7561646,34.12677,8.2994385,52.3626099c2.9190063-5.289978,5.6047363-9.4945679,9.5670776-14.0750732   c-4.5406494,12.8046875-2.6793213,24.5358887,2.59375,36.736084c8.6346436-20.1827393,15.5771484-26.0549316,21.739563-18.4359741   c-19.1220703,0.9898682-17.75354,26.1210938-8.8658447,37.1401978c1.513855-6.1853027,3.5859985-13.5822144,8.9242554-17.6556396   c4.6348267-3.5366821,11.9331665-2.1270142,11.4560547,4.8241577c-2.2536621-0.6610107-4.1126709-1.2063599-5.7503662-1.6867065   c-10.7024536,6.2218628-10.9657593,18.1925659-0.6281128,29.277832   c0.8606567-6.5152588,3.2426147-15.8756714,11.7994385-15.4611816c6.5996704,0.3197632,8.7910767,9.2512817,12.1409302,13.7572632   c4.6536255,6.2595215,10.6109619,11.3944092,17.1156006,15.6474609   c4.2149658,2.7559204,15.4516602,11.2946167,20.5719604,8.9545288   c-20.7669067-13.7745972-35.3233643-34.1950684-43.9888306-57.3648071   c-4.2215576-11.2875977-5.3897095-25.4243164-12.2280884-35.447998c-6.5809937-9.6464233-17.7271118-9.592041-26.8615723-3.5275269   c3.8815308-15.6068726,28.0427856-10.710083,35.7466431-1.7654419   c-3.6782837-12.1174927-10.8700562-22.9865723-19.0656128-32.5164185   c-7.3140259-8.5048218-16.7398682-15.5534058-23.1682129-24.7594299   c-5.5079956-7.8881531-8.9957275-19.0804749-5.9760742-28.5950928c2.6741943-8.4263611,11.7314453-13.9252014,20.24823-10.0544434   c-7.1551514,3.4072876-12.5153198,9.4266663-10.0637817,17.831543c2.1373291,7.3278198,10.2296143,11.1775513,17.4223633,9.512146   c19.1414185-4.4320374,21.3856201-35.3366394,23.0877075-50.8285217   c2.4748535-22.5252686-0.9355469-44.1901245-3.5561523-66.5110474   c-1.2977295-11.0535278-2.4165649-22.1300964-3.1602783-33.2357178   c-0.5895386-8.8028259-1.0408325-18.4128723-6.8276978-25.6236267c2.7229004,11.0310059,1.4122925,20.8041077-0.9555054,30.9888916   c-14.0361938-24.4104614-30.498291-45.13974-61.0516357-49.3415527   c6.1959839-7.5935364,14.6096191-13.469635,24.7596436-13.4504395c10.6867676,0.0202332,18.5025635,7.6649475,26.480835,13.743103   c-18.6446533-37.9683838-69.9790649-52.2510376-108.6927185-54.2086639   c-23.6652222-1.1966705-46.6038208,4.0853424-68.4618835,12.9055634   c-17.6856689,7.1365662-42.8745422,19.7523804-49.2722168,39.4970093   c20.5497742-16.1173706,41.7134399-15.056366,48.9134521,1.8080139   c-30.2251282,3.7445374-45.8897095,25.4656067-60.4433289,50.1762085   c-2.1704407-11.4553528-3.9415283-21.5891418-2.3521423-32.1012573c-5.5652161,9.6096497-4.8407288,20.8531799-5.239502,31.5673828   c-0.4263,11.4520874-1.8432617,22.6254883-3.5307617,33.9492798c-3.324707,22.3103638-4.4321594,43.3139954-1.5924072,65.7346497   c1.8899841,14.9222107,4.5002136,44.215332,25.0044861,45.1787109c7.7956543,0.3662415,14.7598267-5.6704102,15.0479126-13.5514526   c0.1309814-3.5822449-1.1569519-6.8493042-3.5487366-9.494873c-1.568573-1.7350464-7.0692444-3.4668579-7.735321-5.5485229   c10.407135-2.5392761,19.0973206,3.2008362,21.4160156,13.5333557c2.489563,11.0941467-2.7036133,22.3356018-9.9198608,30.4972534   c-7.3715515,8.3374634-16.1826782,15.0695801-23.1212769,23.871521c-3.2923889,4.1766357-6.2824402,8.5696411-8.8765869,13.2142944   c-1.5608521,2.7946167-7.2792053,10.9205933-5.5116882,14.4261475c6.0326843-4.8395996,13.0741272-7.9484253,20.897522-6.706543   c5.6051025,0.8897705,13.7077332,3.5567017,13.8959961,10.3665161c-7.7520752-6.2875366-18.7762451-6.633667-25.4830933,1.3356323   c-7.4587402,8.862854-8.6902466,24.0067139-12.5765991,34.7157593   c-9.2975769,25.619873-24.0002747,46.0114136-46.8982849,61.0164185   c14.4980469-4.1842651,28.3518677-11.2974854,38.0890808-23.1009521c3.6531982-4.4283447,7.3353882-15.5336304,13.444458-16.666687   c8.2220764-1.5250244,12.016449,9.4630737,12.7124329,15.6574707c8.4111328-7.7794189,8.6747131-21.737915-1.066803-28.4786987   c-2.1559753,0.0960693-4.4183044,0.1968994-6.8851929,0.3068237c6.7623291-17.7814331,18.8740234,5.4263916,20.964386,13.5333862   c6.2940063-7.4469604,8.5439453-14.9612427,5.6684265-24.3780518c-2.3699646-7.7612915-7.2275696-12.8047485-15.6774292-13.315979   c9.6255493-6.47229,16.7949524-0.2728882,22.7503967,18.1588135c6.2939758-8.9152832,6.6852112-19.0013428,1.1901245-37.774231   C411.719635,574.8707275,414.8557434,579.7941895,417.646698,586.909668z M405.0030518,773.2596436   c-11.3936157-14.0894775-25.1880798-24.7408447-41.8004456-32.0028687   c-15.0078735-6.5605469-33.2736816-9.7685547-44.3878479-22.798584   c10.9896545,5.6477051,22.9404907,9.0840454,35.0907593,11.1268311c10.566864,1.7766113,21.2228394,1.9916992,31.2635498,6.1173706   c20.1730957,8.2890015,28.8937988,29.4029541,48.2147217,38.8275146   c-8.5411987-12.5940552-14.2982178-24.7610474-19.3489685-37.4197998   c-33.7637329-8.6051025-64.7449036-22.1460571-88.4013672-49.298584   c-8.9683228,0.296875-17.6356506-1.9650879-26.4762878-4.4694214   c-9.332428,15.2578125-17.4788208,31.8006592-18.3365784,49.9800415   c-0.8590088,18.2064819,9.5259399,30.8684082,28.5012817,26.4790649   c1.0310364,19.1713257,19.6017151,12.4872437,32.940979,9.7607422   C364.0692139,765.1047363,383.8890381,766.1032715,405.0030518,773.2596436z M493.5361328,195.0296326   c-4.7680054,3.6368713-9.3023987,9.4293213-7.7962036,15.8121948c1.3994751,5.9308624,7.7012329,10.5828247,13.7730103,10.0872192   c6.1728821-0.5038605,11.2539368-5.8575134,12.0595398-11.8685913c0.9218445-6.8783722-3.6441345-10.5700989-8.6976013-14.1885529   c59.4338379,0.3727875,113.9867554,14.2316742,159.149292,53.8552856c2.3377686-1.240036,2.883728-2.4032745,2.4782104-4.2977448   c-1.2006226-1.1229858-3.6645508-0.9424744-4.5402222-3.0148468c0.8079224-1.5804138,1.9638062-2.4558105,3.5666504-2.3344116   c1.9105225,1.1430206,3.6383667,2.1766815,5.3916016,3.2255707c2.4697266-5.4246979-16.7335815-17.8860016-20.6144409-20.7542114   c-8.0690918-5.9636383-16.6537476-11.2422028-25.5941162-15.7948608   c-19.6694336-10.0160675-40.9173584-16.2921906-62.5379028-20.4550781   c-48.4274597-9.3243866-98.3548584-6.3328705-145.8821411,6.3888092c-2.3855286-0.5332794-1.5397949-3.981781-4.2079468-3.9923096   c-0.8045654,1.6549072,0.3190308,3.6617737-1.4013367,5.6206512c-14.4681091,6.1636505-29.0881348,11.519577-42.5889893,19.7266083   c-6.7579346,4.1080627-13.2324829,8.6791077-19.3722229,13.6642456   c-4.1375427,3.359436-13.1106262,8.7177124-11.2340698,14.9655304c1.3701477,0,2.665802,0,4.1273193,0   c-2.4703369-4.9338379,4.1876831-6.8400421,5.4274292-1.9936218c-6.7209473,6.3155975-6.7209473,6.3155975-5.6187439,9.344101   C381.6160583,211.3769073,437.8573303,195.8610535,493.5361328,195.0296326z M647.3813477,270.338623   c-75.1776123-60.4955902-221.6211243-59.2389221-294.5257874,1.099823c4.8237305,1.4996338,2.7835693,6.736084,5.8101807,9.838623   c10.4399414-9.6691589,22.4024963-16.9139404,35.5743408-21.7657471   c52.1671143-19.2154541,105.8005066-24.9069061,160.6559143-15.3557281   c29.9936523,5.2223206,58.4918823,14.8318329,82.9750366,33.9099274c0.9926147,0.7734985,1.7505493,2.3627014,3.6730957,1.4551697   C642.8309326,276.3205261,642.449646,272.0539551,647.3813477,270.338623z M738.3759766,416.2524109   c-4.6207275-4.2574463-7.9863281-7.5458679-13.6733398-10.5185242   c6.9349365,10.0329285,12.2832031,19.6384277,7.4616699,32.0411377   c-4.9544067,12.7442627-17.2918701,19.9673767-28.5162354,26.4750977   c-11.6307983,6.7433777-24.7427979,13.0630798-32.3096924,24.6955872   c-7.8223877,12.025116-8.3984985,26.4225159-1.2938232,38.8892517   c-5.789917-37.4620667,39.1062622-45.0974426,63.4744263-59.6209106   c13.8909912-8.2790527,23.4241333-21.1683044,25.2781982-37.5177002   c1.1155396-9.8365173-3.1906738-39.5801392-20.0744629-29.9169617c2.5167236,6.0527344,5.9234009,12.0243835,5.9309082,19.5431824   c-4.0115356-6.7918396-7.4368896-13.488678-14.3190308-17.2639771   C732.6700439,407.0493164,736.3825684,410.1379089,738.3759766,416.2524109z M257.2636414,403.0966492   c-14.6085052,2.1094971-17.2120361,20.0812988-15.4437714,32.0768433   c2.3052979,15.6384583,11.4763336,25.9575195,24.8602142,33.5743408   c24.4340515,13.9055176,70.0143433,22.9115601,61.6244507,60.5104065   c7.7696533-9.8615723,7.492218-24.0315247,2.3758545-35.0144348c-5.7727966-12.3920593-17.4030151-20.092865-28.9299622-26.562439   c-11.3607483-6.3762817-23.9517822-12.6289062-31.3345032-23.8634949   c-8.2562866-12.5639954-4.2733459-23.04953,1.2198181-35.6517029c-4.7921753,3.7055054-7.5378723,7.7064819-11.197052,12.6572571   c1.4563293-7.6165161,5.5842285-12.426178,8.3500061-17.9772339c-4.9775085,4.4007263-12.8139343,5.1550598-15.6347961,12.3774109   C254.4143829,411.5041809,255.6748657,407.7847595,257.2636414,403.0966492z M663.5697632,219.2274628   c-41.5435181-45.1833344-102.2463989-55.1768494-161.0896912-54.2431641   c-30.4029541,0.4824219-60.7774048,0.8241577-90.1791382,9.5046234   c-27.2332153,8.0402374-57.8837585,22.1006165-75.2920837,45.461731   c44.4431458-37.5133209,101.8340454-50.8215332,158.81427-49.4689484c1.191803,3.2675018,2.9494934,10.8296356,8.347229,5.2102356   c-0.1784668-1.5899353-0.3725281-3.3184814-0.5491943-4.8918762   C562.9213867,167.5152893,616.9060059,180.8646393,663.5697632,219.2274628z M586.5753784,165.2929993   c6.5076904-4.6229858,5.9849854-11.7145233,6.6435547-19.1094971c6.8469238,9.0270996,2.5409546,15.4698334-3.3129883,21.5560455   c9.5196533,3.8379364,12.9437256,1.1711121,19.1907959-13.6901855c-2.5753784-0.7638397-5.050293-2.0022736-7.8676147-0.5522003   c-2.2498779-5.2044678-5.5279541-9.7579803-6.9609375-15.2315674c-5.7155151-0.6399078-11.1463013-1.7351837-13.8330078-7.915741   c1.0898438-1.8325958,3.881958-1.6101379,4.0795898-4.8393402c1.5552368,3.2285004-0.0284424,6.9986725,4.2261353,7.3647156   c1.9974365-13.995369-16.5117188-5.843544-21.7871094-1.5969849c-1.6226196-1.9002075,0.2432861-3.6039352-0.6272583-5.6116714   c-0.7410278-1.7090225-4.4741211-3.3317337-6.1846313-3.6379318c-4.9389648-0.8841934-9.6248779,2.3953705-14.0344849,3.9961395   c1.0458984,5.8755646,5.9492798,2.3961792,8.7728882,3.9095154c-1.2095337,1.7481384-3.8240967,1.5130768-4.9005127,4.0333557   c0.3465576,1.432251-0.2819214,3.5293427,1.40271,4.9605408c8.3061523,1.5690002,17.9194336,0.8053589,25.0935669,6.0235443   c5.5178223,4.0135193,7.0844116,11.2584686,1.4990234,16.160614c-4.2685547,3.7463684-13.6600342,3.5832367-16.5780029-1.9820557   c-3.2080078-6.1186523,3.1460571-12.0142975,9.0422363-9.8504791c0.6350098,3.7226105-4.1226807,3.886673-4.1578369,6.9383545   c4.0205688,4.5766907,5.9256592,4.1620941,9.1332397-1.9907227c-1.8983765-8.6998596-7.1183472-7.9513092-22.9016113-8.2422028   c-1.4467773,5.2974396-2.7008057,10.7324066-5.4509277,15.6917419c6.8088989,1.1184082,13.6231689,2.2053223,20.4287109,3.3443756   c4.8193359,0.8066101,9.7903442,2.3222046,13.9187622-1.091217c3.4028931-2.8135376,5.7213745-8.2056122,4.199646-12.4055176   c-1.8012695-4.9711609-8.5789185-6.932724-2.2750244-12.2402039   C594.3881226,146.6185455,590.3850708,155.9189911,586.5753784,165.2929993z M455.4776611,126.4703064   c-9.184906-3.7823792-17.6384583-3.1972351-20.5838623,1.1338959c3.6536255,4.8661804,2.9062195,7.1591187-2.8086853,8.7058563   c-2.0095825-1.030426-1.8618164-4.8158722-5.1922913-4.0775299c-1.6836853,2.3908997,1.3256836,5.6485138-1.513031,7.8157654   c-3.9838562-0.056778-3.8163757-4.9819641-7.2215881-5.930069c-3.6707458,3.6489716-8.1091614,4.9050293-12.8998718,3.0311737   c-0.7590942,7.3384857-5.7272034,12.844574-5.4274902,20.3680267c-2.8585205-1.9597168-0.928894-4.6311188-2.9394836-5.9399414   c-1.9275818,1.2609711-3.4582825,2.7440796-4.0219421,4.9181671c3.3126221,12.4431305,8.0797119,15.8724213,16.9439087,12.2810059   c-6.836731-7.3325653-7.059845-14.263031-0.6836243-21.2380371c-2.0832825,14.4280396-1.2197266,17.43013,5.6685791,19.705658   c-6.182251-10.1347046-5.4232788-20.1010132,2.1148682-26.8627167c1.8006897,0.4706421,3.0844727,1.5438995,3.7449951,3.3770142   c-0.9775085,4.642868-5.8504333,6.8298645-5.611908,12.3116302c0.1871338,4.3001862,3.182312,8.5200958,7.1560364,10.0701294   c8.2241516,3.2080231,23.3706055-2.6160736,31.7901611-4.1173859c-1.796814-5.4779205-3.5263672-10.7507935-5.3664856-16.3607483   c-4.8507996-0.8594971-16.8265991-0.4944305-20.7763977,2.949173c-3.6979675,3.2240601-2.9854126,9.6669464,2.2414246,10.7610779   c2.2882385-0.5457001,3.6981506-1.726593,3.8233643-4.4081421c-0.9841614-1.7048035-4.1764221-3.6042328-0.182251-5.9492645   c17.1428223,6.4543304-4.5013428,24.2308044-12.8818359,10.1360626   c-9.3429565-15.7135315,19.6659851-21.7647705,29.2504578-18.7523956c1.197937-2.4961243,2.0463562-4.6662903,1.1399841-7.5119934   c-2.3660583-0.9571075-4.9115906-1.9868011-7.1540222-2.8939209   C447.3207397,128.2563171,453.0074768,133.6146545,455.4776611,126.4703064z M404.2364807,709.5836792   c-3.1681213-14.980957-6.1187744-28.9334717-9.2006531-43.5065918   c-11.6902771,7.255188-23.6841125,12.3009644-36.4834595,16.9264526   C370.9721985,697.4208374,386.1717529,705.0455933,404.2364807,709.5836792z M505.680481,151.9800415   c8.1542358-3.1405487,13.4764404-12.0530853,8.7662354-19.8988342   c-5.1204224-8.5289993-12.6316833-15.4715271-13.5827332-25.9370651   c-1.8034973,10.6291351-8.5087891,17.8639069-14.977417,25.9279861   c-4.6805725,5.8349915-10.8760376,19.4419556-3.3554077,25.6685638c3.7973938,3.1439972,10.6833191,1.9137878,15.2472229,1.9700012   c5.4481812,0.0670776,12.0897827,1.2665405,17.3215942-0.4853058c9.4006348-3.1477966,9.9703979-15.9174042,3.4955444-22.1129761   c-1.2356567,8.6348877-4.8540649,18.0254669-14.5230713,19.4255219   c-10.678833,1.5462646-19.6430359-6.2467651-18.4498901-17.2292328c2.3307495,7.1896057,4.3896484,9.6532745,9.2002258,11.0089417   c-2.80896-6.8233643-2.019989-9.8690186,5.8943481-22.5982132c2.7559204,5.5770493,6.2698364,10.7429581,7.3972473,16.8387222   C507.2569885,147.004776,504.0303345,148.3843079,505.680481,151.9800415z M722.0354614,638.5669556   c-16.1853027,8.2736206-33.1358643,12.6870728-51.3713379,5.699707   c5.633606,8.9210205,21.7078857,27.1582031,33.3848267,22.9972534   C714.2937622,663.6131592,734.0349121,650.451355,722.0354614,638.5669556z M276.903656,639.4769287   c-11.8859253,10.1337891,12.8401489,26.401001,21.5187378,28.2788696   c6.6790771,1.4451904,12.3632507-4.513916,17.4553223-8.1505127c6.565979-4.6891479,11.0143127-10.7473145,15.7596436-17.1485596   c-9.0873718,3.5170898-18.7898254,5.9266968-28.5978699,5.0043945   C293.8483582,646.5968018,285.4826355,642.5575562,276.903656,639.4769287z M365.5184326,629.5197144   c-10.6574707,24.9532471-33.4992371,36.6338501-59.0742798,41.3269043   c14.5114136,5.6834106,32.6775208-1.3521118,45.8226013-7.9121094   C362.5480957,657.8035889,389.8135376,637.2850952,365.5184326,629.5197144z M693.5602417,671.0817871   c-26.2793579-5.1685791-47.6126709-15.6320801-58.0666504-40.3874512   c-7.9111938-1.1651001-12.4393921,7.7955933-9.4750366,14.4880981   c2.9221191,6.5971069,12.1234131,11.6744385,18.0477905,15.1574097   C656.9335327,667.9046631,678.7026367,677.5127563,693.5602417,671.0817871z M517.0829468,209.0722351   c-0.050354,16.7644043,24.5281372,18.0933685,25.9866943,1.4664307   C544.5748901,193.3802338,517.1334839,192.3113403,517.0829468,209.0722351z M467.0179443,197.7481537   c-16.6986389-0.2256622-17.1541443,24.1833649-1.2493286,25.6852417   C482.6653748,225.0289307,484.3307495,197.982132,467.0179443,197.7481537z M448.4031372,215.4994659   c-0.0208435-16.5216522-25.7773438-15.3888702-25.8232727,0.4748993   C422.5306396,232.9881134,448.4247131,232.6123657,448.4031372,215.4994659z M548.8226318,214.9205627   c0.2399902,16.2781372,24.8867798,16.3052979,25.62677,0.2740173   C575.2149048,198.6103516,548.5668945,197.5696106,548.8226318,214.9205627z M603.1312256,223.2513123   c-0.0877686-14.2556-23.2041626-16.6848907-25.4771729-2.1273651   C574.9662476,238.3377991,603.2352295,240.1284485,603.1312256,223.2513123z M407.1993713,236.2854919   c15.0656738,0.3456573,17.0024719-23.5214233,1.7444763-24.6534271   C392.3886108,210.4037933,390.8582458,235.9105835,407.1993713,236.2854919z M353.4081116,170.9738007   c2.0710144-1.9913025,3.8065491-3.6461182,4.8060913-6.4421234c-4.3225708-4.8062744-8.1758423-10.2645569-12.1961365-16.8733826   c-2.1442261,6.8586273-5.6583252,13.3582153-7.6789856,20.182373c-1.8169556,6.136261,1.1160889,9.9468994,5.5901184,13.996582   c2.3327026-6.3760529,1.6657715-13.0754547,2.1596069-20.2169342c2.7882385,2.6902313,2.4379883,6.4500427,5.8865356,7.5279846   c-4.767334,5.5204163,1.0926819,10.0067291,0.578064,15.3937073c-2.1197205,3.5333099-4.4503784,7.5352478,0.6342773,11.2987213   c7.7066956-9.1173553,11.6207275-23.6825714,7.666687-28.076767c-3.6381531,3.4685669-0.1132507,8.4593201-2.2657471,12.225708   C356.2985229,179.3711243,354.4042969,173.0021973,353.4081116,170.9738007z M393.9752808,234.0884857   c-0.3764648-15.6739807-24.7782898-12.7551727-22.2163086,2.4549561   C374.0808411,250.3284912,394.3102722,248.0393677,393.9752808,234.0884857z M615.5634766,245.0827332   c14.5645752,0.0430756,15.3370972-21.6546173,0.9260864-22.5210876   C601.864502,221.6823425,601.765564,245.0419617,615.5634766,245.0827332z M534.1714478,124.8403244   c-0.4370728,4.6158676-4.2927856,8.5945053-3.1413574,13.2040482c2.1693115,8.6850128,0.7368774,16.3240967-5.4837036,23.0576935   c15.8618164,3.5898132,18.7004395-5.2140503,17.706604-16.0730286   C542.5565186,137.4200897,538.0812988,131.3965454,534.1714478,124.8403244z M426.6779175,85.9131699   c0.9794312,13.8414001,11.7567139,15.5976334,22.9071045,19.5834961c-4.0052185-4.5798645-3.9224854-8.5684052-2.3439331-12.860733   c-9.7835999-4.2681427-13.1270142-12.1345291-12.4401245-23.3562241   c-4.945343,6.8759079-4.7112732,13.3797302-4.6372681,20.6227341   C428.5426331,88.0472031,427.7736206,87.1671219,426.6779175,85.9131699z M372.5179443,247.1463318   c0.0252075-14.2214203-19.4393616-14.4244995-19.1416931-1.4327393   C353.6419983,257.3084412,372.4932861,261.0714722,372.5179443,247.1463318z M344.4198608,206.4039612   c-10.543396-8.6052856,0.43573-21.9749756-8.7987671-31.3079224c-7.8064575,15.079071-7.3713989,31.5762787,0.962677,37.616806   C339.7774353,211.8525085,341.6811218,209.2738495,344.4198608,206.4039612z M529.7780151,144.0141296   c0.6161499-7.7986755-2.1356201-15.5768585,0.5153809-23.2538528c0.2233276-0.6468658-0.7017212-1.8010025-1.2702026-2.592308   c-3.2061157-4.4629135-6.4663696-8.8869476-10.0579224-13.8029633c-2.1265869,7.6804962-7.7267456,14.8051682,0.1355591,22.0167847   c1.1001587-0.2472,0.1012573-2.0688248,1.6419067-2.0589523C525.40625,130.0458679,527.137146,137.167923,529.7780151,144.0141296z    M500.4882812,51.4758034c-4.3904114,3.0406113-6.2988586,7.0681076-7.4299011,11.4140472   c-2.4054565-0.0338173-1.9830322-3.3423195-4.816925-2.8218765c-0.4528503,5.0053978-1.1837158,10.0360374,2.8805542,14.8333702   c5.190979-5.645195,5.2206726-12.9049149,8.7460938-18.8322411c4.375,6.032959,5.5625305,13.1768608,10.6805725,19.7559242   C511.3718872,64.9629288,506.2639465,58.2696152,500.4882812,51.4758034z M642.1863403,186.8592682   c1.7706299,3.1623993,1.1989746,7.8245239,7.5825195,7.7489014c1.9098511-8.1711426-3.0598755-16.213623,0.2597046-25.413269   c-3.7473755,2.6775818-2.9714355,6.7692413-6.6552124,7.1138c-3.3120117-2.1847687-2.5778809-6.7355652-5.3555908-9.8010406   c-3.6884766,6.5133667-1.1409302,11.4013214,1.9550171,15.8481445c2.0062866,0.7913971,3.0467529-1.9297943,4.4346924-0.7341614   C645.4855957,184.3733063,643.0170288,184.9980469,642.1863403,186.8592682z M485.0394897,70.4355545   c0.9122009-8.3761139,0.6893005-16.2444115-0.4029541-24.215477c-3.1260376,3.9037552-11.1534424,8.7563019-11.2832642,13.9712753   C473.2106934,65.917984,480.2314453,69.6529999,485.0394897,70.4355545z M468.6109314,107.58358   c-6.5485229-10.2926407-11.5520935-12.6560898-18.6638184-8.8693085   c2.2845459,7.7472305,5.9543152,14.9067459,9.7781372,22.9732819c1.656189-6.7033844-1.0211487-12.1362305-1.4653931-17.9395752   c4.9918213,0.6698761,5.2749939,5.3899231,7.2970581,8.3988266   C467.3876038,110.9258804,467.8040771,109.351738,468.6109314,107.58358z M423.1952209,107.2912827   c1.7718201,4.7091522,4.5726013,7.1032486,8.1102295,9.0523224c8.1593018-2.5920563,15.9569092-0.2542572,24.1309509,3.0690308   C448.6256409,104.0585251,435.6299133,112.710022,423.1952209,107.2912827z M544.5319214,120.0568466   c13.194397-5.7293472,14.2918091-5.8878784,24.9476318-3.7769089c2.8348389-2.7660065,5.9763794-5.4109955,6.6270142-10.0656128   c-3.7875977,4.9034805-8.6654663,3.4970703-13.4280396,2.9517975   C553.020752,108.0603714,548.9732666,110.4167938,544.5319214,120.0568466z M315.5927124,207.4532166   c-9.2091675,0.1535339-10.212677,14.0087891-0.7472839,14.3111725   C324.1563721,222.0618591,324.8338928,208.2438202,315.5927124,207.4532166z M472.8754883,99.8431244   c0.9364929-5.903038-3.1895752-10.0453415-3.4931946-15.0074463c4.2763367-0.1130524,6.705719,2.9057617,10.0097656,5.6440201   c-1.6717224-8.4196243-9.0819092-13.1372528-16.3408813-11.3367615   C465.9890137,93.58284,466.4133301,94.5146103,472.8754883,99.8431244z M684.3540649,221.4744415   c8.8546143-0.9003296,9.3641357-13.5755768,0.1414185-13.787796   C675.1755371,207.4721832,675.4769287,220.3879089,684.3540649,221.4744415z M351.869751,265.84198   c6.8797913-6.5432129,6.3665161-10.6114044-1.8555603-17.4411774c-2.7711792,1.2085571-5.6578369,2.3941193-8.0779419,4.9774628   C344.6557922,258.0149231,347.7600403,262.041748,351.869751,265.84198z M765.6274414,410.022522   c1.8886719,8.1799316,1.1580811,15.5487671,2.2485962,22.8652649c0-5.2051086,0-10.4102478,0-15.6153564   c4.263916,7.1082458,1.1795044,14.4891357,1.1535645,22.4283752   C775.5217896,427.4327393,774.7231445,419.7187195,765.6274414,410.022522z M628.4521484,175.8367157   c-1.6987915,0.1797943-1.3244019,3.1815796-1.4840088,4.6413879c-1.8383789,1.4478302-4.5897217,0.1260529-6.104248,2.753067   c5.4842529,1.9377136,10.3793335,4.9564362,15.6942139,7.2899933   C633.4420166,185.6222992,630.2028198,181.1361389,628.4521484,175.8367157z M381.2185364,184.1448364   c-4.4511414-1.4908447-8.4790039-1.7273254-10.789978-5.9979401c-1.2822266,5.380661-5.5480347,8.5058746-7.1787109,14.1478882   C369.0291443,188.2818146,374.375885,185.7834625,381.2185364,184.1448364z M343.9894714,186.5021973   c-3.6293335,7.0050354-3.2472534,11.783432,0.5776672,15.177475c2.158844,1.9156799,3.7216492,1.3689575,5.5621033-0.9024658   C344.8554382,197.2623901,344.0689697,192.0697174,343.9894714,186.5021973z M499.513855,149.1366882   c4.0569458-5.3758698,0.979187-10.0715485,0.4589844-14.7490082   C497.8754578,138.9660645,494.7702942,143.4809723,499.513855,149.1366882z M472.6605225,68.9261322   c-1.2695007,2.0709457-2.5463257,3.8392029-1.9361267,6.4433441c2.5848083,1.777504,5.2618713,3.6185074,8.2677307,5.6855698   c-2.0466919-5.2858429-2.0466919-5.2858429-1.6656494-8.9334259   C475.9916382,71.0128632,475.023407,69.3814163,472.6605225,68.9261322z M651.4425049,202.4670105   c7.0524292-1.9460754,9.1995239-9.1857605,4.8743896-17.3530426   C657.059021,192.2775726,654.3046265,196.8143158,651.4425049,202.4670105z M416.7704163,124.1078262   c1.1779785,3.7127609,4.651886,3.686409,5.6236572,6.1691971c3.7151794-2.1608734,7.2416992,0.3430634,12.3453979,0.563385   C429.2003174,125.2773056,422.8684692,126.8721924,416.7704163,124.1078262z M452.8444824,121.7307129   c-5.4405518-2.89505-11.0055237-4.9474335-17.261322-2.322464   C440.9973145,122.4820175,447.1513062,120.5463486,452.8444824,121.7307129z M593.2807007,185.85495   c-1.3599243,1.7583466-3.1659546,3.103302-0.9069214,5.3635101c2.0962524-0.6312714,4.5098877,1.2187195,6.7646484-1.0584717   C598.7741089,186.9161072,596.3964844,186.3106384,593.2807007,185.85495z"/><path d="M804.2506714,568.2442627c-7.8007812-19.8607788-5.328064-27.6434937,11.5565796-35.6887207   c-11.5966797-11.4489136-23.5823975-21.9334106-10.2645874-36.8618774   c10.2915649-11.5362549,11.9575195-24.9523621,6.0266113-39.1629333   c22.772644,5.993866,12.5405273,35.1767273,20.4557495,50.1247559c3.8704224,7.3094177,10.6326904,7.6903381,17.9353027,8.8640442   c11.0653076,1.7785034,12.1582031,11.3936768,7.932312,20.1555176c9.3916626,12.383728,9.3858643,20.5985107-0.524353,29.6248169   c-13.7980957-5.4206543-28.060791-11.5582275-43.8480225-7.7134399c3.4420776,3.1688843,9.5977173,1.9936523,13.8536987,2.5039673   c5.3268433,0.6387329,10.5214233,1.9997559,15.5127563,3.9624023c7.5617065,2.9734497,15.4437256,7.2249756,20.3079834,13.9456177   c9.5441895,13.1863403,3.5852051,31.5484009-9.4657593,39.7420654c-13.1986084,8.286377-30.7637939,8.3848877-43.4279785-1.0319214   c-6.3079224-4.6904907-10.8707275-11.4830933-12.6868896-19.1428833   C794.9850464,586.4776611,799.1871338,577.8173218,804.2506714,568.2442627z M807.5474854,606.1672974   c3.4578247,9.3621216,18.4249268,11.2102051,26.8131104,10.2778931   c10.1621704-1.1295166,20.4246826-6.2005615,25.3339233-15.5214844   c15.1168213-28.7017822-27.9595337-37.3106079-47.2178955-31.3638306   c7.1817627,6.2455444,14.9891357,6.7913818,23.0057373,6.9802246c-8.7215576,5.4797974-17.4827271-0.1428223-26.3456421-0.0249634   c3.8590698,5.3878784,9.6973877,5.8981323,15.6942139,6.651123c-5.8261719,4.0139771-11.8922119-0.1044922-18.9052124,1.489502   c10.9630127,7.428894,21.5553589,6.3635864,32.381897,3.7741699c-9.8015137,8.8294067-21.0849609,7.0998535-33.8116455,4.0110474   c14.6565552,17.0019531,39.0195923,18.8046265,52.6251831-0.6039429   C850.1687012,609.5377197,832.7251587,614.265625,807.5474854,606.1672974z M816.5445557,480.1505737   C814.9428101,495,796.5396729,511.6719055,815.7172241,522.9523926c6.0848999,3.5792847,14.0886841,4.6043701,21.0302734,4.4750366   c3.762085-0.0700684,18.3287964-1.3361206,14.9996338-8.3412476c-2.6108398-2.7954102-11.8612671-1.1898193-15.7424927-2.4671631   c-3.484436-1.1467285-6.4171753-3.008606-8.6932983-5.9290161   C820.5491333,502.0135498,821.9300537,489.597229,816.5445557,480.1505737z M855.4653931,555.9140015   c8.5395508-13.1207886-10.8377686-17.9660034-20.7736206-19.3079224   c-6.402832-0.8647461-13.2805176-0.9297485-18.9550171,2.5787354c-5.0172119,3.1021729-10.7444458,9.4342651-6.3959961,15.3208618   c5.9766235-7.3447876,14.437439-13.1035156,24.296936-12.203186   C842.8231201,543.1413574,848.7646484,550.4511108,855.4653931,555.9140015z M818.6252441,552.7095947   c9.3791504-0.7869263,17.5996094,0.2245483,26.7663574,2.645813   C835.9984741,545.4455566,826.6296387,544.5241089,818.6252441,552.7095947z"/><path d="M189.6387482,455.8778687c-3.3742981,7.3291016-5.1107941,15.9081726-3.5944519,23.9308167   c1.4725189,7.7909241,6.6663361,11.5038757,11.2092743,17.4734497   c10.646347,13.9896851-1.8554688,25.9161682-12.4756317,35.0326233   c16.4822998,6.0444946,20.022583,20.4134521,11.9060822,35.3303223c8.1023407,14.4407959,11.53685,31.6721802-0.7423096,45.0830688   c-10.4386292,11.4008179-30.6113281,14.2906494-44.4167786,7.9122925   c-15.0868835-6.9703369-23.5720062-25.6084595-14.4698486-40.5258789   c4.7787018-7.831665,13.5460358-12.8632812,21.9313354-16.0183716c4.353775-1.6381836,8.9216919-2.7483521,13.5184479-3.4373779   c4.8933716-0.7334595,11.1847076,0.1842041,15.6503906-2.1348877c-4.4950714-3.9255371-13.8007355-2.2733154-19.0267944-1.4347534   c-8.74086,1.4025269-16.3239136,5.729126-24.7944489,7.9796753c-9.7353363-7.506958-10.2330627-17.2827759-1.552124-28.8927002   c-4.6716461-9.5473022-1.7571106-19.166626,9.0826263-19.9674683c7.0206146-0.5187988,13.7550049-2.3170776,17.2651978-8.9704895   c4.2993317-8.149292,2.0007324-18.380249,3.4133301-27.1564026   C174.1032562,470.3885193,179.6933136,459.2345886,189.6387482,455.8778687z M194.3008118,583.4397583   c-5.9963837,0.5068359-11.9199982,1.546875-17.9744873-1.2408447c13.2095032-1.6500244,13.6371765-1.8676758,14.2401276-7.2280273   c-8.0273895,2.9596558-16.0187225,6.1374512-24.3755798,1.5025635c7.8040924-0.7330322,15.5875244-1.086731,22.1486664-5.9675293   c-1.955246-4.8684082-14.5962524-2.9919434-18.613266-2.6287842c-6.4548187,0.5834351-13.5927582,1.9039307-19.5093994,4.7119751   c-11.0773926,5.2572632-14.7761078,17.2922974-9.3384399,28.1436768   c8.3783112,16.7196655,44.2833099,24.5160522,53.5075989,4.2905273   c-22.3682556,11.4754028-51.2173767,2.2821655-50.961853-15.4995728   c8.7500916,22.0445557,38.808609,20.9071655,52.3499298,4.5239258c-27.312439-0.3051147-27.719223-0.3835449-31.8473053-6.000061   C180.493988,591.4294434,190.7813873,589.9528809,194.3008118,583.4397583z M183.2961884,480.4962158   c-4.566803,9.6605835-3.0174408,22.1021423-9.7126617,30.7121277c-2.3708038,3.0487976-5.5160522,5.0625305-9.1418762,6.2991028   c-4.5701294,1.5584717-12.2065735-0.2053223-15.7931366,2.5786133c-0.6178284,7.2856445,14.602829,7.5592041,19.1190643,7.4973145   c7.1473846-0.0980835,15.475235-1.5984497,20.8318329-6.7385254   C201.0798035,508.8690796,186.7667084,492.9891968,183.2961884,480.4962158z M192.5521851,555.1749878   c2.3618469-13.8086548-10.2698212-19.4659424-22.147522-19.1638794c-10.5177765,0.267395-33.885025,5.6345215-23.9620514,19.836853   C160.9273529,539.7492065,176.3396912,536.2605591,192.5521851,555.1749878z M182.4997253,552.2035522   c-8.4298248-7.5752563-18.8296204-6.4789429-24.3875122,2.0863647   C166.0121765,552.2549438,173.787384,552.9927979,182.4997253,552.2035522z"/><path d="M500.4733887,993.0147095c-20.4463196-13.5532227-36.5229187-30.7198486-49.224823-52.1158447   c6.9880676-1.0775146,13.3693848-2.0615234,20.3949585-3.1448364   c4.2063904,17.3040771,13.2132263,31.6726074,28.8011475,42.1317749   c15.2522278-10.4402466,25.2037048-24.5606689,29.7112732-42.9244995   c6.7515869,1.0891724,13.338562,2.1517944,20.7354736,3.3450928   C538.2336426,962.3667603,520.8857422,979.0405884,500.4733887,993.0147095z"/><path d="M242.9896698,673.194397c-9.4784088,27.9907837-44.8080139,43.7791748-69.8311768,25.8660889   c-24.9589233-17.8670654-36.4356537-47.246521-32.4792328-77.2974854c2.2778625-0.9899292,6.8230133,3.2357788,8.6290283,4.4037476   c0.7047272,24.9311523,12.2788239,52.5708008,35.47229,64.5687866   C207.2195435,702.3432617,228.7657928,691.579834,242.9896698,673.194397z"/><path d="M851.9355469,625.9896851c2.5866089-1.9492798,4.9580688-3.7364502,7.8753052-5.9349365   c7.2202759,28.8239136-7.513916,61.7294312-31.5704956,78.2158813   c-13.9473267,9.5584717-29.138916,11.7592163-44.4406128,3.7678833   c-6.189209-3.2322388-11.7435303-7.6117554-16.4237671-12.7873535c-3.6112671-3.9935303-10.5791626-11.1100464-9.763855-17.0588379   c13.0806885,20.6117554,38.2068481,30.0515137,60.4429932,17.6124268   C839.7088623,677.6915283,851.8394775,649.9953003,851.9355469,625.9896851z"/><path d="M758.7188721,510.7174683c5.8670044-1.588501,6.8288574-7.5932312,11.402771-10.7419434   c-1.2650146,6.6368103-3.5239868,19.6315918-11.7044067,20.975708   c-9.2341309,1.5172119-11.3139038-10.4111633-10.2103271-16.9979858   c2.9221191-17.4411926,21.1916504-21.9801941,36.1132202-23.4838867c0.8173218-8.5007629,7.130249-15.1922913,16.2576294-13.269928   c10.0276489,2.111969,12.5452881,14.4815063,4.4616699,20.6168518c-4.6721802,3.5461426-8.8677368,2.4684143-14.1971436,1.4008179   c-5.0736694-1.016449-10.1036987-0.4387207-15.0562134,1.038269   C767.9033203,492.6063232,752.6009521,500.425354,758.7188721,510.7174683z M800.0322876,485.5618591   c8.7571411-1.5480347,7.960083-14.3865356-1.4556885-12.902771   C790.0516968,474.002533,791.7333984,485.4429626,800.0322876,485.5618591z"/><path d="M229.8654785,499.9049988c5.2037659,3.5695496,6.1189728,9.2993469,11.4398193,11.0015259   c6.8352356-8.858551-7.0829926-16.966217-13.9009094-19.847229c-4.4852448-1.8952637-9.3329163-2.7087708-14.1836548-2.1423035   c-4.7293549,0.5523376-9.1997375,2.9107666-13.9701538,1.1550293c-9.8738708-3.6340027-11.7781067-18.3718872-1.0504303-22.1575012   c9.4293518-3.3274231,16.5723724,3.6478882,17.8323822,12.4638672c16.6123352,0.8976135,38.3661804,9.13797,36.4954834,29.4276733   c-0.6081085,6.5955505-5.3985748,13.8038025-12.9899597,10.155304   C233.1461945,516.8893433,231.8102875,505.9197083,229.8654785,499.9049988z M207.7781982,478.7494812   c-0.4175415-8.793396-14.4075165-7.7971802-13.2253418,1.1482849   C195.6308441,488.0550537,207.3923492,486.6900635,207.7781982,478.7494812z"/><path d="M760.9295654,541.0686035c-7.2735596,11.1956787-7.4969482,24.6306152-14.0890503,35.5669556   c0.2058716-11.4395142,0.0144653-23.7282715,4.3701172-34.5313721c3.9497681-9.7963257,14.1102905-11.0545654,19.8762207-1.9893799   c13.2329712,20.8047485,6.9370117,45.5114746-3.8497314,65.5366821c1.0118408,4.9334717,3.9074097,10.1803589,2.7177734,15.3554688   c-1.053833,4.5842285-6.3915405,10.6947632-10.505249,5.3185425c2.2089844-2.4790649,3.72052-5.5919189,4.1209106-8.8989258   c0.4702759-3.8845215-1.8411255-7.2694702-1.6327515-10.864563c0.1705933-2.9442139,2.4498901-5.8690186,3.5969849-8.6208496   c1.6773682-4.0240479,2.9923096-8.1982422,3.8555298-12.4745483   C771.9434814,572.8181763,772.5393066,549.7092285,760.9295654,541.0686035z"/><path d="M241.3920441,626.8624268c-4.2864075,4.5447998-9.1501465-0.1323242-10.4396362-4.9164429   c-1.6460266-6.1068115,2.977417-11.4240112,0.9079742-17.7226562c-2.3031311-7.0098877-6.6047058-12.9933472-8.4211273-20.3126831   c-1.929184-7.7735596-2.2731476-15.857666-1.304184-23.7944946c1.0018768-8.2061768,7.5543213-32.7037354,20.530014-25.0540161   c10.4901276,6.1844482,11.5908356,31.6746826,10.8194885,42.2843018   c-6.7445221-11.0686646-7.7917175-24.4054565-14.0835419-35.7260132   c-12.8991089,9.6762085-12.9212799,38.4925537-0.3297272,65.6722412   C236.0360107,613.8499756,235.5837097,620.5380859,241.3920441,626.8624268z"/><path d="M869.2042236,509.5641479c1.250061-12.2735596,0.3205566-14.5713501-7.9718628-20.4004822   c-1.2819824,1.3769226,1.0822144,4.4077759,1.399231,5.8481445c0.630127,2.8634949,0.3016968,5.9220276-1.0499878,8.5340881   c-2.5812378,4.9880066-8.1819458,7.4385681-13.6113281,7.0235291c-4.6987305-0.3591309-10.5476685-3.1554565-10.5703125-8.6472473   c-0.0282593-6.8849792,7.5809937-7.3658447,12.633728-8.4328613c-6.625-3.0932007-16.0177002-5.3192444-14.9171143-14.4619446   c0.791626-6.5767822,11.0444946-12.1793823,14.7674561-4.4793396c-1.5587769,3.2191162-3.4074707,0.2961121-5.6821289,0.678894   c-3.1098022,0.5233765-4.7367554,3.846283-4.8555908,6.7365112c2.1361694,4.9723511,7.1055908,5.137146,11.6541748,6.3656921   c-1.5053711-1.8660278-3.0108032-3.7320251-4.5507202-5.6408081c8.2607422-1.8287964,17.3954468,0.6087952,23.0661011,7.0452881   C874.9584961,495.9113464,876.7514648,504.4259033,869.2042236,509.5641479z M846.0222778,497.7052002   c-8.2984619,0.9989014,1.0404663,10.9091187,7.6482544,7.6390076c5.2307739-2.588623,7.0516357-12.1697693,0.9503784-14.7742004   c-1.1358032,5.0421753-3.6671753,8.868988-6.635498,12.5123901   C845.6610718,501.3456421,847.1821899,499.4619141,846.0222778,497.7052002z"/><path d="M155.3079071,474.8141785c0.25177,1.8266907,0.4272003,3.0996094,0.6904755,5.0098267   c-2.392395-1.1851501-3.8178253-2.5241394-4.8754883-4.7047729c3.1151123-8.1622009,14.702713-2.7330627,15.2095947,4.2631531   c0.600647,8.2901611-8.3742523,11.5563049-15.0637817,12.5976868c1.7097168,3.0557556,7.3922729,2.2492676,10.0160522,4.8121643   c2.9305573,2.8624573,3.4721985,7.3187866,0.6475067,10.4363098c-5.74646,6.3423157-18.2530823,3.4002686-22.1099548-3.2996826   c-5.2224884-9.0722046,1.2411652-15.7610168,10.0999908-16.4951172c3.8125916-0.3159485,10.0384827-0.7373352,11.6217651-5.2857361   C163.1018066,477.6729736,159.0324402,475.4746094,155.3079071,474.8141785z M143.044342,493.2527771   c-2.1573029,9.8821716,10.3277435,18.8437805,15.5999908,7.9385986c-1.5424194-2.3092346-2.8192596-4.2676086-5.6707001-3.4017029   c-0.4718475,2.3101807,2.4488983,2.771698,2.1788788,4.854187c-2.2454224,1.0814209-3.7545166-0.0012512-5.1098175-1.4307556   C149.6616669,492.2577515,149.5183105,492.0827637,143.044342,493.2527771z"/><path d="M819.2816162,385.7130737c-14.9830933-0.5628052-12.0137329-24.34198,2.9116211-22.244873   C836.7664795,365.5158386,833.2876587,386.2392273,819.2816162,385.7130737z"/><path d="M176.1522217,362.7472229c0.8745117,6.2720947,8.6335907,6.3947449,12.3696594,10.1585693   c4.9976807,5.03479,0.556366,11.4437866-5.5607147,12.6045837   C168.5700989,388.2412109,160.1847382,364.0274658,176.1522217,362.7472229z"/><path d="M762.8442383,659.546936c-4.6867676,2.9396362-14.4553223,0.7672729-19.5839233-3.6251831   c-8.538147-7.3125-10.0588379-23.7045288-3.1488647-38.1508179   C734.9945679,638.4296265,742.6380615,652.3485107,762.8442383,659.546936z"/><path d="M237.5668488,660.1181641c20.1664276-7.1498413,28.080246-20.7099609,23.46315-41.5621948   c3.993866,11.6893311,6.70047,23.3638306-0.8310242,34.4299316   C254.8295746,660.875061,246.3559418,661.1245117,237.5668488,660.1181641z"/><path d="M342.3154602,893.6395874c-14.1098022-9.3039551-22.4859924-23.3832397-30.8340759-37.5917358   c5.6831055,5.6311646,12.0463562,10.4210205,17.8293152,15.8535767c2.2014465,2.0680542,0.9520264,5.611084,2.5457764,8.3225098   C334.780304,885.197998,338.8198853,889.1727295,342.3154602,893.6395874z"/><path d="M131.3335876,509.3296509c-16.6933441-10.125,8.0892029-31.0736694,21.7231293-26.4103699   c-0.5130157,3.1864624-6.0838318,2.5202942-8.4700012,3.1785889c-3.3043365,0.9116211-6.4707947,2.3763428-8.8895874,4.8589172   C130.2342834,496.5635986,132.3484039,502.5385437,131.3335876,509.3296509z"/><path d="M809.4061279,649.1646729c2.4544067-7.7161255,3.243042-15.1682129-1.4342041-22.4848633   c-1.5004883-2.3470459-0.7254028-3.4337769,2.2096558-6.4465332   C818.7010498,623.8955078,818.4954834,638.8449707,809.4061279,649.1646729z"/><path d="M191.6350403,620.2202759c2.6021423,2.0881348,2.7636871,4.5275879,1.3513031,6.6672974   c-4.7462769,7.1904907-4.2644196,14.6087646-1.0023346,22.7177734   C182.2840729,640.708252,182.2279053,623.4747314,191.6350403,620.2202759z"/><path d="M492.1882019,469.7198486c2.2815552,0.7689209,3.3111572,1.1159058,4.9575195,1.6707458   c-0.466156-6.1427307,2.2566223-12.12854-2.2260437-17.4628296c0.9794617-1.7311096,1.8173218,1.8062744,2.8466187-0.7221985   c0-4.9311829,0-10.702301,0-16.4733887c4.5126038,5.4518127,0.1734314,12.783905,3.7780762,19.4857178   c-1.8400269,4.9893494-0.0373535,11.2987976-0.5497437,16.9325256c1.7165833,2.4487915,2.7657471-0.416748,4.1749268,0.5307312   c-5.6788635,5.9299622-2.4278259,12.9440308-2.9509888,19.5135498c3.0549316,0.9707947,4.3478394-1.4729919,6.7323914-2.1210022   c-0.9013672,3.2124634-3.9124756,4.4043884-5.3033142,6.4885864c0,5.5412598,0,10.8414612,0,16.1944885   c3.5301514,0.1513672,5.021698-2.8097229,8.1195374-3.7472839c-1.5570068,4.1341858-5.4224854,5.6070862-7.7120361,8.7172546   c-0.5434265,4.8450317,0.4052734,9.7744141,0.7218323,14.817749c3.3776245,0.65979,4.7964478-2.6467285,8.1520996-3.5360107   c-1.4789429,4.4277344-6.1545715,5.3095703-8.0895081,9.0751343c-0.2436523,4.5665894-0.0935669,9.5213623,1.1848145,14.6514282   c3.8006287-0.657959,6.4270935-3.0947876,9.8210754-5.90448c-1.9730225,5.4382935-6.6842346,6.9421387-9.7811279,10.1206055   c0,4.9311523,0,9.8970947,0,15.1099243c4.7216492,0.5540771,7.409668-2.7676392,12.0075684-5.4345093   c-2.651062,4.9150391-7.3207092,7.4959717-11.7790833,10.5599976c-0.2034607,5.2670288-0.2750854,10.201355,0.5637207,15.1219482   c3.7668762,0.2509766,6.1948547-2.225769,10.058136-3.2990723c-2.7086182,4.3007202-7.045929,5.1986084-10.17453,7.9923706   c-0.4092407,4.9931641-0.7262573,10.1171875,0.2836609,15.1878662c3.6545715,0.7854614,5.9822388-2.2687988,9.8977051-2.6619873   c-2.9314575,3.9711914-7.1559448,4.9266357-10.6772156,7.7032471c0,4.7844238,0,9.9050293,0,15.2351074   c4.2193298,0.6531372,7.3691711-2.3048706,12.3530579-3.9641113c-3.9214478,4.8601685-8.5493774,6.1789551-12.6594238,8.5704956   c-0.729248,5.0275269-1.5347595,10.0856934-0.4924011,15.465271c4.0950012,0.1454468,7.2414246-2.3024292,11.8184509-3.6116333   c-3.8635864,4.557251-8.3970032,5.7451782-12.6948547,8.0692749c-0.2631226,4.5203857-0.5376892,9.2374878-0.8190918,14.0733032   c5.0014343,0.800415,8.504425-1.7036133,12.9321594-3.5350952c-3.4003296,5.0507202-8.8374634,5.7830811-13.163269,8.5999146   c0,4.4979248,0,9.0654297,0,13.8131104c3.781311,1.5066528,6.7252502-1.4434814,10.5447998-2.0471802   c-2.6045837,4.0159912-6.8128357,4.7277832-10.4934387,6.6923218c-0.7007751,4.6881104-0.4221497,9.4321899,0.0367126,14.3001709   c4.1442261,0.9907837,7.0439148-2.4246826,11.1542969-2.8222046c-3.0255737,3.9385986-7.487854,4.8530884-11.0949402,7.2598877   c-0.7892151,4.6019897,0.7493591,9.020874,1.3140869,13.5236816c3.4862366,2.0362549,5.8500977-2.1655884,9.1014099-1.4459229   c-1.8753662,3.041748-5.3969421,3.4252319-8.1221008,5.4898682c-0.5656738,4.6187134,1.7500305,8.692688,2.7216187,12.7369995   c2.407074,1.5737915,4.077301-0.6179199,6.3778992-0.4310303c-0.9569702,2.2929077-3.4923096,2.4894409-4.9259949,4.3052368   c0.7290955,3.9476929,1.6569519,7.9470215,3.9442444,11.3014526c2.0784912,0.6868286,3.5731201-0.5983276,6.8870239-1.5874634   c-2.7415771,2.166626-4.0410767,3.1936035-5.2807617,4.1734009c14.8233643,37.0884399,57.6707764,56.2325439,98.4814453,39.7253418   c-20.8138428,24.0140381-74.3723145,12.0097656-102.6049194-23.0906982   c-3.1566467-1.2843018-7.1692505,0.7529907-10.1907043-2.1483154c2.5568848-0.8296509,5.2563477,0.6281738,8.0043335-0.9882202   c-1.9328613-3.7061157-3.8545532-7.3908081-5.7324524-10.9914551c-4.6253052-1.5379639-9.7103882-1.4208984-14.0224915-6.1727905   c4.565979,1.5704346,7.9675903,3.173645,12.4621887,3.0145264c-1.788269-4.8258667-3.4148865-9.2155151-5.0487366-13.6247559   c-4.1969604-1.8206177-8.9724426-2.2631836-12.9891663-6.4414062c4.4733887,0.7250366,7.5661926,3.4733276,11.8562927,3.0444946   c-1.1419983-4.8571777-2.2207031-9.4450073-3.2687683-13.9025269c-4.1781311-2.0749512-8.8200989-2.6231689-12.089386-6.8267212   c4.205658,0.3452759,7.1026917,4.2208252,11.4913635,2.9562988c-0.7295227-5.2396851-0.3850403-10.4377441-1.8832397-15.3790283   c-3.7229309-2.5984497-8.5330505-3.4264526-11.4654846-8.0020142c4.1921387,1.0670166,6.8106079,4.5222168,11.2301331,4.1832275   c0-5.5703125,0-11.0713501,0-16.8044434c-3.3581543-2.7659302-8.4074097-3.4500122-11.4342041-8.2597656   c4.2781067,1.085022,7.0196838,4.2622681,11.7355957,4.7667236c0.440979-5.5383301,0.8740234-10.9775391,1.2874451-16.1699219   c-3.0447693-4.0772705-8.6101379-4.7908325-11.1367188-10.1382446c3.8504944,1.9614258,6.9631348,3.5469971,10.4597778,5.328125   c2.484314-5.6046753,1.3921204-11.2139282,2.163208-16.6447144c-3.4662476-3.49646-8.5525818-4.857605-11.4829712-10.4978027   c4.3110352,2.4332275,7.2991028,5.0961304,11.995636,5.8471069c0.2688904-5.4040527,0.5302429-10.657959,0.7890015-15.8587036   c-3.6900024-3.4464722-8.5318298-5.105835-11.9529724-10.7555542c4.7200623,2.4633789,7.6990051,5.3649292,12.2128601,6.5776367   c0-5.6778564,0-10.9586792,0-16.4969482c-3.329895-3.244751-8.214325-5.2141113-11.82547-11.0671997   c4.6460876,3.0577393,8.0531921,5.3001099,12.1711731,8.0103149c0-6.3529053,0-12.0282593,0-18.2441406   c-3.0286865-3.0155029-8.3585205-4.3977051-10.8385925-10.5007935c4.0448914,2.9779053,7.0272522,5.519104,10.8889465,7.0653687   c1.5808716-5.3155518,1.0215454-10.472168,0.7680969-15.5761719c-2.8098145-3.8164673-8.1156921-4.756897-10.4234009-10.1461182   c3.8135986,1.723877,6.3353882,4.5797729,10.3880005,5.2084351c0-4.944519,0-9.7938843,0-14.5344849   c-2.3634033-3.5646973-7.4363403-4.1582031-9.2184143-9.3009644c3.3879395,1.9243164,6.1721802,3.5057983,9.454895,5.3703613   c0-5.4170532,0-10.1486206,0-15.0639648c-2.2149963-3.4377441-6.9846802-4.4534912-9.2995605-9.2012329   c3.6173401,1.2807617,5.6697998,4.2732544,9.325592,4.7138672c0-4.7418213,0-9.442749,0-14.6855774   c-2.0031128-1.8342896-4.4080811-4.0365906-6.8131104-6.2388c0.1936646-0.2912292,0.3872681-0.5823975,0.5809326-0.8735657   c1.9523315,1.0941772,3.9046936,2.1883545,6.5358887,3.6630249c0-5.1331787,0-9.6237793,0-14.8544922   c-1.9164429-1.8248596-4.3512878-4.1433105-6.7861328-6.4617004c0.1463623-0.2275391,0.2926636-0.4550476,0.4390259-0.6825867   c1.9945068,1.228302,3.9890137,2.4565735,6.2962952,3.8774719c1.3677979-4.7272034,0.7443848-9.3016663,0.9805298-13.9338379   C495.8450623,473.7296143,494.5085449,472.2641296,492.1882019,469.7198486z"/><path d="M626.5234375,375.0917969c-13.1968994,4.7537537-13.8532715,15.5897522-15.2942505,26.8187561   c-1.7096558,13.3220215-9.1046753,24.1864929-18.8096313,33.3584595c-3.781189,3.5735779-7.7164307,6.9877319-11.644104,10.4024963   c-11.8495483,10.3019409-21.0501099,21.9560242-20.1623535,39.0535278   c-2.3424683-8.8650208-6.2807617-17.0763245-4.5357056-26.6985474c3.6825562-20.306427,4.4304199-40.9606628,6.2761841-61.4836121   c0.9324951-10.3683167,2.354187-20.645752,5.6872559-30.5939026c3.506897-10.4671631,10.510376-16.9478455,21.3956299-18.6374512   c11.5090332-1.786438,21.7731934,0.8919373,30.1995239,9.8477783c-0.7398071,0.1924133-1.1359253,0.4422913-1.4091797,0.3454895   c-17.4192505-6.1696777-28.2001343-2.7000732-38.7746582,12.5074768   c-9.029541,12.9857483-14.4297485,33.9952698-13.0235596,50.6681213   C576.8093262,386.1598206,597.7150879,369.7694397,626.5234375,375.0917969z M605.8535767,389.364502   c-4.7834473,17.3465271-14.8604736,27.0733948-33.2976685,23.6112366   c-2.7399902,6.1315002-2.8878174,6.8361511-2.5380859,11.3025208   C594.5335083,422.8796692,609.0690308,409.154541,605.8535767,389.364502z"/><path d="M438.8103638,484.0986938c0.12854-15.7494202-7.6765442-27.2046509-18.6777954-37.0547485   c-4.0277405-3.6062622-8.1200256-7.1431274-12.0743103-10.828186   c-12.1762695-11.347168-20.1725464-24.9664307-20.7811584-41.8831177   c-0.2320557-6.4491882-2.1042175-11.061554-7.5438538-14.4649048c-2.1204529-1.3266907-3.796936-3.3628845-6.0230103-5.3927002   c26.3814087-2.3199463,53.4925232,10.6323242,59.157074,44.8428345   c3.3502808-17.3921814-8.1921692-48.4804077-22.0404358-59.1587524   c-7.4607239-5.7529297-15.7182312-7.5119324-24.8735962-4.7553711c-1.4147339,0.4259644-2.7546997,1.7680969-4.4684448,0.8674011   c12.9560852-15.6309814,40.2988281-11.8297729,48.5575562,6.8457642c4.59729,10.395874,5.8592529,21.625061,6.8335266,32.7651978   c1.7087402,19.5390015,2.8125916,39.153717,6.4645691,58.4473572   C445.3432312,464.9098511,441.6085205,474.3183594,438.8103638,484.0986938z M393.4710388,389.4087219   c0.7484131,26.2797241,14.1397095,34.1983337,37.6543884,34.9602661   c-0.9983521-3.8822632-1.6896973-7.7786865-4.5031738-11.4346924   C407.960968,416.2695923,398.3700562,406.2078247,393.4710388,389.4087219z"/><path d="M499.9246216,342.3553467c5.7400513,3.5083313,12.9990234,6.4087524,19.3693237,2.8334656   c6.7136841-3.768158,9.1484375-11.7124634,8.0211182-18.9425354c-2.7127075-17.3976135-19.2201233-31.3020935-6.5227051-49.0260315   c-8.2630615,24.5717773,23.5098877,37.4226074,17.5471802,61.2950745   c-2.3262329,9.3135986-9.8049927,17.8916931-19.28302,20.3969421c-9.4096375,2.4871521-15.3439331-4.368042-18.663208-12.4181213   c-2.0030212,0.1282959-4.4521179,8.667511-6.7566833,10.4690857c-3.6470947,2.8511047-8.361969,2.6829529-12.6480713,1.5693359   c-8.8973999-2.311676-15.7676086-9.4322815-18.3269348-18.1850586   c-7.1560364-24.4732361,24.4704285-37.4287415,17.0728149-62.0636597   c11.3763428,15.2623901-1.2778931,29.4863281-5.5689392,44.3646851   C469.0568542,340.3618774,484.1968384,352.3240051,499.9246216,342.3553467z"/><path d="M499.0099487,283.168457c-4.9204712-7.9257812-4.7329102-10.60672,1.3895874-19.163147   c3.1799927,6.1086731,7.5458374,11.8565063,1.059021,18.5233765c5.9064636,15.5523987,37.0620728,57.257019,1.0734863,58.4768066   c-11.0662231,0.375061-22.4136963-2.3673706-22.0249023-15.709137   C480.9494324,310.1181946,493.7461853,296.9049072,499.0099487,283.168457z M500.2294922,306.0065002   c-2.9583435,5.3566895-16.4106445,31.0657349,0.1215515,29.8079224   C515.8015747,334.638855,503.0078735,312.2005005,500.2294922,306.0065002z"/><path d="M500.3790588,355.7733765c3.7676697,6.309967,9.536377,13.1321411,10.2904358,20.6519165   c0.6653137,6.6346741-3.5437317,13.850769-10.9905396,13.6928101c-6.5865173-0.1397095-10.8822021-6.3818665-10.5951233-12.5069885   C489.4611206,369.5616455,496.2089844,362.243927,500.3790588,355.7733765z"/><path d="M512.4991455,188.2553101c2.3504639-2.5065613,12.0799561-2.3716125,15.6506958,1.1136627   c5.6514893-3.2310333,6.6394043-2.9974976,8.5180054,2.3786163c-20.2015991-1.2922668-40.270874-1.7201843-60.1836548-0.7330627   c-1.0490417-2.3232422-0.6635437-3.9277344,1.4320374-3.8676605   C488.9864807,187.4644012,500.2929688,184.1591949,512.4991455,188.2553101z"/><path d="M591.9487305,203.2036743c-9.3753052-1.9759369-17.675415-6.0184937-26.6957397-6.6477203   c-0.3131104-2.0384979,0.4624023-3.1281586,1.5982056-4.3716278c2.8419189,1.2681274,6.6539917,0.5201874,8.1970825,4.2681427   C582.1835327,194.2007141,591.8605957,197.7533569,591.9487305,203.2036743z"/><path d="M449.9800415,189.694809c5.4476318,0.5480347,10.2896423-2.7961273,15.6819153-0.2506866   c1.8300476-1.8853607,4.4052734-2.4767761,7.4090271-1.8835297c1.4020081,0.8258362,1.4282837,2.0751648,0.7532043,3.7568359   c-7.6837463,0.9174042-15.4738159,1.8475037-23.0309753,2.7497406   C449.4239502,192.8546448,449.9666443,191.6325531,449.9800415,189.694809z"/><path d="M561.5765991,190.930481c0.5423584,1.6498566,0.9619141,2.9259796,1.5945435,4.8502808   c-8.4492188-1.181366-16.5985107-2.320755-24.7554932-3.4612427c-0.2842407-4.575882,2.4115601-4.603653,4.6151733-3.6720581   C548.8848267,191.1221619,555.0081787,190.7272949,561.5765991,190.930481z"/><path d="M421.9718628,195.7754364c0.9364624,5.1026459,4.0714722,2.8639069-15.5951538,8.9467468   c-2.2163086-2.0033569-1.8163757-4.951416,0.7259827-4.6553802   C412.7737427,200.7270355,416.3114929,195.6144409,421.9718628,195.7754364z"/><path d="M612.7757568,207.1006165c-0.5380249,1.4258881-1.0082397,2.6719208-1.4685669,3.8917694   c-8.6641846-2.4523468-15.0521851-5.9208374-16.3241577-8.9812622c3.3630981-1.4429169,5.5122681-0.4968567,6.5755005,2.9848633   C606.8522949,204.0744781,606.8522949,204.0744781,612.7757568,207.1006165z"/><path d="M379.7886963,216.1832581c-1.6112061-1.0417786-2.0999756-2.0100708-1.9520264-3.793457   c3.2454529-1.5589905,6.7039185-3.2203217,10.0713501-4.8379059c1.9644165,1.3842926,1.4568176,2.8546143,0.9783325,4.343399   C385.8723755,213.3158569,382.9020996,214.7158356,379.7886963,216.1832581z"/><path d="M403.0558472,206.4146271c-3.7718506,1.4478302-7.0600891,2.7100067-10.2263489,3.9253998   c-1.5238953-0.9299164-1.9291992-2.1139374-1.964447-4.092041   C396.0248108,208.4357452,400.3446655,198.0122986,403.0558472,206.4146271z"/><path d="M436.8653564,195.2697449c-2.8680725,2.8304749-6.8490906,2.296051-9.9368896,3.6060028   c-1.9605103-0.9918213-1.6657104-2.3804169-1.4581604-4.0818634c2.6349182-0.7857208,5.3751221-1.602829,8.2514954-2.460556   c0.9984131,1.0077515,0.5834045,3.8022919,3.3316345,3.1039734L436.8653564,195.2697449z"/><path d="M437.0534363,195.4373016c0.2821655-6.7392731,6.5682373-3.285553,9.7835388-6.2622833   c0,2.0732269,0,3.4802551,0,4.9867249c-3.3085022,0.7651825-6.4735718,2.2378845-9.964447,1.1142731   C436.8653564,195.2697449,437.0534363,195.4373016,437.0534363,195.4373016z"/><path d="M656.5450439,239.7525635c-2.1074219-2.6498566-4.8796997-4.5214233-7.6053467-6.4740601   c2.5157471-2.5605469,2.5157471-2.5605469,10.553894,3.0951385   C659.5714111,238.3237,657.9909668,238.858429,656.5450439,239.7525635z"/><path d="M367.3836365,218.5730743c2.436554-1.5607452,4.6217346-2.960495,6.6971436-4.2898712   C379.0541992,217.2896881,371.5201111,223.5241547,367.3836365,218.5730743z"/><path d="M546.8244629,234.4937744c-0.8536377,4.6391449-3.8502197,2.7022247-5.5054321,3.1483154   c-2.4172363-0.1339417-1.5200806-2.9836578-3.638855-3.2955475c-2.1380005,2.3211823-8.1709595,4.180542-6.1230469-1.3430176   C536.6213379,232.602829,541.6710205,232.9511871,546.8244629,234.4937744z"/><path d="M559.644165,237.6208801c-4.1847534,3.6934204-7.6521606,1.2169647-10.9949341,0.9110413   c-0.2180176-1.6066437-0.0305786-2.6998291,0.8428345-3.7430267   C552.5123901,235.2493286,555.6015015,235.553299,559.644165,237.6208801z"/><path d="M477.5305176,231.6162872c1.3539429,1.6475983,1.713623,2.723465,1.225647,4.0892334   c-2.1470947,1.2794189-4.5090942,0.7982788-7.5182495,0.591156   C470.4849854,230.4409637,475.283783,232.9455719,477.5305176,231.6162872z"/><path d="M397.5642395,251.6793213c3.03125-2.5118256,6.105835-4.7067413,10.0752258-2.9250793   C404.4353333,250.4513855,401.8000183,254.1141663,397.5642395,251.6793213z"/><path d="M460.250824,234.092514c2.4899597-1.4118195,5.0622864-0.8086243,7.5775146-1.2206268   C467.6411743,238.9402618,459.439209,239.34375,460.250824,234.092514z"/><path d="M449.9519653,238.4267578c0.3793335-5.2243652,4.2595825-3.8941956,7.2893372-4.2257538   C457.5896912,239.0049286,457.1822815,239.2402954,449.9519653,238.4267578z"/><path d="M528.9835205,236.9541626c-3.3032227-1.3382263-7.5718384,0.9276733-7.4754028-4.4296875   c2.2506714-1.2613678,4.3995972-0.5944977,6.7958374-0.5115356   C528.484375,233.325058,528.6605225,234.6053619,528.9835205,236.9541626z"/><path d="M580.1473389,136.9387817c-4.7906494,3.8265381-13.1305542-1.1616974-8.1026001-6.12883   C576.1651611,126.7394409,581.3256226,132.3829803,580.1473389,136.9387817z"/><path d="M383.1548157,171.0778503c-0.1949158-2.3610687-0.3898315-4.7221069-0.5964661-7.2250671   c-1.9737244-1.9671631-4.4514771-0.2167664-6.6800537-0.637207c2.1057739-2.6911926,4.9015808-4.1342468,8.2055359-3.1867828   C389.2582092,161.512619,388.8520813,165.8413544,383.1548157,171.0778503z"/></g><text x="0" y="1015" fill="#000000" font-size="5px" font-weight="bold" font-family="'Helvetica Neue', Helvetica, Arial-Unicode, Arial, Sans-serif">Created by Nicky Spencer</text><text x="0" y="1020" fill="#000000" font-size="5px" font-weight="bold" font-family="'Helvetica Neue', Helvetica, Arial-Unicode, Arial, Sans-serif">from the Noun Project</text></svg>